<svg width="285" height="222" viewBox="0 0 285 222" fill="none" xmlns="http://www.w3.org/2000/svg">
<mask id="path-1-outside-1_1953_1134" maskUnits="userSpaceOnUse" x="0" y="0" width="283" height="222" fill="black">
<rect fill="white" width="283" height="222"/>
<path d="M21.6621 118.481C23.3296 118.036 25.2194 117.814 27.3315 117.814C29.4437 117.814 31.6114 117.925 33.8347 118.147C34.2794 117.48 34.9464 116.98 35.8357 116.646C36.8362 116.313 37.7811 115.813 38.6704 115.146C39.5597 114.479 40.2823 113.478 40.8381 112.144C41.394 110.81 41.5051 108.809 41.1716 106.141L41.6719 101.806C41.116 101.806 40.3935 101.306 39.5041 100.305C37.6143 98.1931 36.3359 96.3032 35.6689 94.6358C35.1131 92.8571 34.8352 91.1896 34.8352 89.6333C34.9464 88.077 35.2799 86.5763 35.8357 85.1311C36.5027 83.5748 37.1697 81.9629 37.8367 80.2954C38.5037 78.628 38.8372 76.8493 38.8372 74.9595C38.9483 72.9585 38.8927 70.9575 38.6704 68.9566C38.5592 66.9556 38.3925 64.9546 38.1702 62.9536C37.9478 60.8415 37.8367 58.8405 37.8367 56.9507C34.724 52.1706 33.1677 48.7245 33.1677 46.6123C33.1677 44.5002 34.1682 43.1662 36.1692 42.6104C38.1702 41.9434 40.8381 41.8322 44.1731 42.2769C47.6192 42.6104 51.1209 42.9439 54.6782 43.2774C58.3467 43.6109 61.8484 43.6665 65.1833 43.4441C68.5183 43.2218 71.0751 42.1657 72.8537 40.2759C77.6339 40.6094 81.8581 41.3876 85.5266 42.6104C89.3062 43.722 91.9186 45.0004 93.3637 46.4456C94.8089 47.8907 94.8645 49.3915 93.5305 50.9478C92.1965 52.3929 88.9171 53.5602 83.6924 54.4495C78.9123 54.8942 75.6329 54.8942 73.8542 54.4495C72.1868 54.0048 71.1863 53.6158 70.8528 53.2823C70.5193 52.8376 70.3525 52.6153 70.3525 52.6153C70.4637 52.6153 69.9079 53.2267 68.685 54.4495C68.2404 54.6718 67.1843 55.0053 65.5168 55.45C63.9605 55.8946 62.293 56.4505 60.5144 57.1175C58.8469 57.7845 57.3462 58.6182 56.0122 59.6187C54.7894 60.508 54.2891 61.5641 54.5115 62.7869C55.0673 65.0102 55.1785 66.9 54.845 68.4563C54.5115 70.0126 54.0112 71.569 53.3442 73.1253C52.7884 74.5704 52.177 76.1823 51.51 77.961C50.843 79.6284 50.4539 81.685 50.3428 84.1306C50.2316 86.5763 50.5095 89.5777 51.1765 93.135C51.8435 96.6923 53.2331 101.028 55.3452 106.141C56.7904 102.473 57.8464 100.75 58.5134 100.972C59.2916 101.195 59.6807 102.417 59.6807 104.641C59.7918 106.864 59.5695 109.699 59.0137 113.145C58.4578 116.48 57.7353 119.537 56.8459 122.316C61.1814 122.872 65.0166 123.039 68.3515 122.816C71.7977 122.483 74.7436 122.094 77.1892 121.649C79.746 121.093 81.8581 120.593 83.5256 120.148C85.3043 119.592 86.6938 119.426 87.6943 119.648C88.6948 119.87 89.4174 120.593 89.862 121.816C90.3067 122.927 90.4735 124.817 90.3623 127.485C90.3623 128.041 89.6397 128.374 88.1946 128.486C86.7494 128.597 85.0263 128.708 83.0254 128.819C81.0244 128.93 79.0234 129.153 77.0224 129.486C75.1326 129.82 73.7431 130.542 72.8537 131.654L52.844 136.323C52.6217 137.434 52.3993 138.268 52.177 138.824C50.9542 144.827 50.5095 149.829 50.843 153.831C51.2877 157.833 51.3988 160.612 51.1765 162.169C50.5095 163.836 50.176 164.837 50.176 165.17C50.176 165.615 50.5095 165.948 51.1765 166.171C51.8435 166.504 52.7884 167.004 54.0112 167.671C55.234 168.338 56.7904 169.839 58.6802 172.174C59.4583 173.174 59.903 173.785 60.0142 174.008C60.1253 174.341 60.0142 174.564 59.6807 174.675C59.4583 174.786 59.1248 175.008 58.6802 175.342C58.3467 175.675 58.0688 176.342 57.8464 177.343C57.4018 180.233 57.6797 182.679 58.6802 184.68C59.6807 186.681 60.6811 188.459 61.6816 190.016C62.6821 191.683 63.2935 193.239 63.5159 194.685C63.8494 196.241 63.0712 197.964 61.1814 199.854C60.2921 202.855 58.9581 205.079 57.1794 206.524C55.512 207.969 53.7889 208.191 52.0102 207.191C50.3428 206.19 48.9532 203.745 47.8415 199.854C46.7299 196.074 46.452 190.405 47.0078 182.845C45.785 179.51 44.7845 176.287 44.0063 173.174C43.3394 170.061 42.7835 167.116 42.3389 164.336C42.0054 161.668 41.6719 159.167 41.3384 156.833C41.116 154.387 40.7825 152.219 40.3379 150.33C39.1151 148.217 38.5592 146.216 38.6704 144.327C38.7816 142.326 39.1151 140.38 39.6709 138.49C37.5588 137.823 35.2799 136.934 32.8342 135.823L21.6621 118.481ZM150.926 26.2691C151.37 27.1584 151.704 28.1589 151.926 29.2706C152.26 30.3822 152.482 31.9385 152.593 33.9395C152.815 35.9405 152.927 38.4973 152.927 41.6099C152.927 44.6114 152.815 48.391 152.593 52.9488C153.26 54.8386 153.983 56.5061 154.761 57.9512C155.539 59.2852 156.206 60.8415 156.762 62.6201C157.429 64.2876 157.762 66.4553 157.762 69.1233C157.874 71.7913 157.54 75.293 156.762 79.6284C156.984 82.7411 157.095 85.8537 157.095 88.9663C157.207 92.079 157.429 95.0248 157.762 97.804C158.096 100.472 158.596 102.862 159.263 104.974C160.041 107.086 161.153 108.643 162.598 109.643C162.598 113.867 162.709 117.703 162.932 121.149C163.265 124.595 163.487 128.152 163.599 131.821C163.821 135.489 163.821 139.547 163.599 143.993C163.376 148.44 162.765 153.665 161.764 159.667L151.759 142.159L149.258 114.646L143.422 109.643L136.752 127.985L133.417 144.66L126.747 163.836C125.08 162.947 124.135 161.335 123.912 159C123.69 156.666 124.635 152.998 126.747 147.995C123.412 144.882 121.578 141.27 121.245 137.157C120.911 132.932 121.245 128.541 122.245 123.983C123.357 119.314 124.691 114.534 126.247 109.643C127.803 104.752 128.804 100.027 129.248 95.4695L131.75 72.1248C131.083 70.6796 130.694 68.8454 130.582 66.6221C130.471 64.3988 130.749 62.2867 131.416 60.2857C132.083 58.2847 133.25 56.6728 134.918 55.45C136.585 54.2272 138.864 53.9493 141.755 54.6162C141.755 49.8361 142.032 45.9453 142.588 42.9439C143.144 39.9424 143.867 37.4412 144.756 35.4402C145.645 33.4393 146.646 31.7718 147.757 30.4378C148.869 29.1038 149.925 27.7142 150.926 26.2691ZM145.089 63.7874C143.644 68.6787 142.366 73.0697 141.254 76.9605C140.365 80.2954 139.531 83.4081 138.753 86.2984C137.975 89.1887 137.586 90.8561 137.586 91.3008C138.253 89.6333 138.864 88.3549 139.42 87.4656C140.087 86.5763 140.81 86.2428 141.588 86.4651C142.366 86.5763 143.255 87.2988 144.256 88.6328C145.256 89.9668 146.368 91.9678 147.591 94.6358L145.089 79.6284V63.7874ZM228.783 52.115C229.338 52.115 229.616 52.3929 229.616 52.9488C231.506 52.9488 232.785 53.6158 233.452 54.9497C234.23 56.1726 235.175 57.7845 236.286 59.7854C237.398 61.7864 239.121 63.9541 241.455 66.2886C243.901 68.6231 247.736 70.8464 252.961 72.9585C254.184 76.1823 254.851 79.1282 254.962 81.7962C255.073 84.353 254.851 86.8542 254.295 89.2998C253.85 91.7455 253.128 94.1911 252.127 96.6367C251.127 98.9712 250.182 101.472 249.293 104.14C248.403 106.808 247.625 109.754 246.958 112.978C246.402 116.202 246.18 119.815 246.291 123.817C246.736 126.707 246.458 129.542 245.457 132.321C244.457 135.1 243.345 137.546 242.122 139.658C244.235 141.325 246.124 142.659 247.792 143.66C249.459 144.549 250.071 145.438 249.626 146.328C248.959 147.995 249.015 149.551 249.793 150.997C250.571 152.331 251.738 153.609 253.295 154.832C254.851 156.055 256.574 157.222 258.464 158.333C260.465 159.556 262.299 160.779 263.966 162.002C265.634 163.225 266.968 164.503 267.968 165.837C268.969 167.282 269.247 168.839 268.802 170.506C265.467 170.061 262.41 168.95 259.631 167.171C256.963 165.504 254.184 163.836 251.294 162.169C245.847 159.278 242.067 156.61 239.955 154.165C237.843 151.719 236.342 149.663 235.453 147.995C232.118 150.885 228.783 153.553 225.448 155.999C222.113 158.445 219.612 160.501 217.944 162.169C215.61 164.726 213.442 166.726 211.441 168.172C209.44 169.617 207.717 170.395 206.272 170.506C204.827 170.617 203.715 169.95 202.937 168.505C202.159 167.06 201.881 164.67 202.103 161.335C202.103 159.223 201.492 157.5 200.269 156.166C199.157 154.721 197.712 153.442 195.933 152.331C194.155 151.219 192.209 150.218 190.097 149.329C188.096 148.44 186.151 147.495 184.261 146.494C182.482 145.383 180.87 144.215 179.425 142.993C178.091 141.659 177.313 139.991 177.091 137.99C176.868 135.433 177.146 132.154 177.925 128.152C178.703 124.039 179.592 119.981 180.592 115.98C181.815 111.422 183.149 106.53 184.594 101.306C182.705 100.083 181.593 98.1375 181.259 95.4695C181.037 92.6904 181.204 89.5222 181.76 85.9649C182.316 82.4076 183.094 78.5168 184.094 74.2925C185.206 69.9571 186.206 65.6216 187.096 61.2862C187.763 58.8405 188.485 57.173 189.263 56.2837C190.153 55.2832 191.042 54.8386 191.931 54.9497C192.821 55.0609 193.766 55.5611 194.766 56.4505C195.767 57.2286 196.767 58.0624 197.768 58.9517C198.768 59.841 199.769 60.6192 200.769 61.2862C201.769 61.9532 202.77 62.2311 203.77 62.1199C205.216 61.6752 206.327 61.2862 207.105 60.9527C207.884 60.6192 208.828 60.1745 209.94 59.6187C211.163 58.9517 212.775 58.1735 214.776 57.2842C216.777 56.3949 219.778 55.2277 223.78 53.7825C225.003 53.3378 226.004 53.0599 226.782 52.9488C227.671 52.8376 228.338 52.5597 228.783 52.115ZM221.279 68.7898C219.167 68.7898 216.888 69.5124 214.442 70.9575C212.108 72.4027 209.773 74.0702 207.439 75.96C205.216 77.7386 203.103 79.5729 201.102 81.4627C199.102 83.3525 197.49 84.6865 196.267 85.4646C196.044 86.9098 195.933 89.1331 195.933 92.1345C196.044 95.0248 196.156 98.0819 196.267 101.306C196.378 104.418 196.434 107.42 196.434 110.31C196.545 113.089 196.489 115.09 196.267 116.313C195.822 120.093 196.267 123.705 197.601 127.152C199.046 130.487 200.825 133.822 202.937 137.157C204.604 138.824 206.272 139.658 207.939 139.658C209.162 139.658 210.552 139.102 212.108 137.99C213.775 136.879 215.443 135.489 217.11 133.822L218.778 132.154C217.888 131.376 216.61 130.32 214.943 128.986C213.386 127.541 211.774 126.04 210.107 124.484C208.551 122.927 207.161 121.371 205.938 119.815C204.827 118.147 204.382 116.702 204.604 115.479C205.271 113.589 205.494 112.089 205.271 110.977C205.049 109.754 204.771 108.754 204.437 107.976C204.104 107.197 203.937 106.642 203.937 106.308C203.937 105.975 204.437 105.697 205.438 105.474C206.661 106.475 207.884 107.475 209.106 108.476C210.107 109.365 211.163 110.254 212.275 111.144C213.497 112.033 214.553 112.922 215.443 113.812C216.666 115.479 217.777 117.369 218.778 119.481C219.889 121.482 221.279 122.927 222.946 123.817C225.392 124.706 227.06 125.54 227.949 126.318C228.616 125.317 229.45 123.817 230.45 121.816C231.451 119.815 232.451 117.703 233.452 115.479C234.563 113.256 235.508 111.144 236.286 109.143C237.176 107.142 237.731 105.641 237.954 104.641C235.842 102.195 234.23 99.1935 233.118 95.6363C232.006 91.9678 231.062 88.4661 230.283 85.1311C229.505 81.685 228.727 78.628 227.949 75.96C227.171 73.1809 226.059 71.3466 224.614 70.4573C224.169 70.0126 223.725 69.6236 223.28 69.2901C222.835 68.9566 222.168 68.7898 221.279 68.7898Z"/>
</mask>
<path d="M21.6621 118.481C23.3296 118.036 25.2194 117.814 27.3315 117.814C29.4437 117.814 31.6114 117.925 33.8347 118.147C34.2794 117.48 34.9464 116.98 35.8357 116.646C36.8362 116.313 37.7811 115.813 38.6704 115.146C39.5597 114.479 40.2823 113.478 40.8381 112.144C41.394 110.81 41.5051 108.809 41.1716 106.141L41.6719 101.806C41.116 101.806 40.3935 101.306 39.5041 100.305C37.6143 98.1931 36.3359 96.3032 35.6689 94.6358C35.1131 92.8571 34.8352 91.1896 34.8352 89.6333C34.9464 88.077 35.2799 86.5763 35.8357 85.1311C36.5027 83.5748 37.1697 81.9629 37.8367 80.2954C38.5037 78.628 38.8372 76.8493 38.8372 74.9595C38.9483 72.9585 38.8927 70.9575 38.6704 68.9566C38.5592 66.9556 38.3925 64.9546 38.1702 62.9536C37.9478 60.8415 37.8367 58.8405 37.8367 56.9507C34.724 52.1706 33.1677 48.7245 33.1677 46.6123C33.1677 44.5002 34.1682 43.1662 36.1692 42.6104C38.1702 41.9434 40.8381 41.8322 44.1731 42.2769C47.6192 42.6104 51.1209 42.9439 54.6782 43.2774C58.3467 43.6109 61.8484 43.6665 65.1833 43.4441C68.5183 43.2218 71.0751 42.1657 72.8537 40.2759C77.6339 40.6094 81.8581 41.3876 85.5266 42.6104C89.3062 43.722 91.9186 45.0004 93.3637 46.4456C94.8089 47.8907 94.8645 49.3915 93.5305 50.9478C92.1965 52.3929 88.9171 53.5602 83.6924 54.4495C78.9123 54.8942 75.6329 54.8942 73.8542 54.4495C72.1868 54.0048 71.1863 53.6158 70.8528 53.2823C70.5193 52.8376 70.3525 52.6153 70.3525 52.6153C70.4637 52.6153 69.9079 53.2267 68.685 54.4495C68.2404 54.6718 67.1843 55.0053 65.5168 55.45C63.9605 55.8946 62.293 56.4505 60.5144 57.1175C58.8469 57.7845 57.3462 58.6182 56.0122 59.6187C54.7894 60.508 54.2891 61.5641 54.5115 62.7869C55.0673 65.0102 55.1785 66.9 54.845 68.4563C54.5115 70.0126 54.0112 71.569 53.3442 73.1253C52.7884 74.5704 52.177 76.1823 51.51 77.961C50.843 79.6284 50.4539 81.685 50.3428 84.1306C50.2316 86.5763 50.5095 89.5777 51.1765 93.135C51.8435 96.6923 53.2331 101.028 55.3452 106.141C56.7904 102.473 57.8464 100.75 58.5134 100.972C59.2916 101.195 59.6807 102.417 59.6807 104.641C59.7918 106.864 59.5695 109.699 59.0137 113.145C58.4578 116.48 57.7353 119.537 56.8459 122.316C61.1814 122.872 65.0166 123.039 68.3515 122.816C71.7977 122.483 74.7436 122.094 77.1892 121.649C79.746 121.093 81.8581 120.593 83.5256 120.148C85.3043 119.592 86.6938 119.426 87.6943 119.648C88.6948 119.87 89.4174 120.593 89.862 121.816C90.3067 122.927 90.4735 124.817 90.3623 127.485C90.3623 128.041 89.6397 128.374 88.1946 128.486C86.7494 128.597 85.0263 128.708 83.0254 128.819C81.0244 128.93 79.0234 129.153 77.0224 129.486C75.1326 129.82 73.7431 130.542 72.8537 131.654L52.844 136.323C52.6217 137.434 52.3993 138.268 52.177 138.824C50.9542 144.827 50.5095 149.829 50.843 153.831C51.2877 157.833 51.3988 160.612 51.1765 162.169C50.5095 163.836 50.176 164.837 50.176 165.17C50.176 165.615 50.5095 165.948 51.1765 166.171C51.8435 166.504 52.7884 167.004 54.0112 167.671C55.234 168.338 56.7904 169.839 58.6802 172.174C59.4583 173.174 59.903 173.785 60.0142 174.008C60.1253 174.341 60.0142 174.564 59.6807 174.675C59.4583 174.786 59.1248 175.008 58.6802 175.342C58.3467 175.675 58.0688 176.342 57.8464 177.343C57.4018 180.233 57.6797 182.679 58.6802 184.68C59.6807 186.681 60.6811 188.459 61.6816 190.016C62.6821 191.683 63.2935 193.239 63.5159 194.685C63.8494 196.241 63.0712 197.964 61.1814 199.854C60.2921 202.855 58.9581 205.079 57.1794 206.524C55.512 207.969 53.7889 208.191 52.0102 207.191C50.3428 206.19 48.9532 203.745 47.8415 199.854C46.7299 196.074 46.452 190.405 47.0078 182.845C45.785 179.51 44.7845 176.287 44.0063 173.174C43.3394 170.061 42.7835 167.116 42.3389 164.336C42.0054 161.668 41.6719 159.167 41.3384 156.833C41.116 154.387 40.7825 152.219 40.3379 150.33C39.1151 148.217 38.5592 146.216 38.6704 144.327C38.7816 142.326 39.1151 140.38 39.6709 138.49C37.5588 137.823 35.2799 136.934 32.8342 135.823L21.6621 118.481ZM150.926 26.2691C151.37 27.1584 151.704 28.1589 151.926 29.2706C152.26 30.3822 152.482 31.9385 152.593 33.9395C152.815 35.9405 152.927 38.4973 152.927 41.6099C152.927 44.6114 152.815 48.391 152.593 52.9488C153.26 54.8386 153.983 56.5061 154.761 57.9512C155.539 59.2852 156.206 60.8415 156.762 62.6201C157.429 64.2876 157.762 66.4553 157.762 69.1233C157.874 71.7913 157.54 75.293 156.762 79.6284C156.984 82.7411 157.095 85.8537 157.095 88.9663C157.207 92.079 157.429 95.0248 157.762 97.804C158.096 100.472 158.596 102.862 159.263 104.974C160.041 107.086 161.153 108.643 162.598 109.643C162.598 113.867 162.709 117.703 162.932 121.149C163.265 124.595 163.487 128.152 163.599 131.821C163.821 135.489 163.821 139.547 163.599 143.993C163.376 148.44 162.765 153.665 161.764 159.667L151.759 142.159L149.258 114.646L143.422 109.643L136.752 127.985L133.417 144.66L126.747 163.836C125.08 162.947 124.135 161.335 123.912 159C123.69 156.666 124.635 152.998 126.747 147.995C123.412 144.882 121.578 141.27 121.245 137.157C120.911 132.932 121.245 128.541 122.245 123.983C123.357 119.314 124.691 114.534 126.247 109.643C127.803 104.752 128.804 100.027 129.248 95.4695L131.75 72.1248C131.083 70.6796 130.694 68.8454 130.582 66.6221C130.471 64.3988 130.749 62.2867 131.416 60.2857C132.083 58.2847 133.25 56.6728 134.918 55.45C136.585 54.2272 138.864 53.9493 141.755 54.6162C141.755 49.8361 142.032 45.9453 142.588 42.9439C143.144 39.9424 143.867 37.4412 144.756 35.4402C145.645 33.4393 146.646 31.7718 147.757 30.4378C148.869 29.1038 149.925 27.7142 150.926 26.2691ZM145.089 63.7874C143.644 68.6787 142.366 73.0697 141.254 76.9605C140.365 80.2954 139.531 83.4081 138.753 86.2984C137.975 89.1887 137.586 90.8561 137.586 91.3008C138.253 89.6333 138.864 88.3549 139.42 87.4656C140.087 86.5763 140.81 86.2428 141.588 86.4651C142.366 86.5763 143.255 87.2988 144.256 88.6328C145.256 89.9668 146.368 91.9678 147.591 94.6358L145.089 79.6284V63.7874ZM228.783 52.115C229.338 52.115 229.616 52.3929 229.616 52.9488C231.506 52.9488 232.785 53.6158 233.452 54.9497C234.23 56.1726 235.175 57.7845 236.286 59.7854C237.398 61.7864 239.121 63.9541 241.455 66.2886C243.901 68.6231 247.736 70.8464 252.961 72.9585C254.184 76.1823 254.851 79.1282 254.962 81.7962C255.073 84.353 254.851 86.8542 254.295 89.2998C253.85 91.7455 253.128 94.1911 252.127 96.6367C251.127 98.9712 250.182 101.472 249.293 104.14C248.403 106.808 247.625 109.754 246.958 112.978C246.402 116.202 246.18 119.815 246.291 123.817C246.736 126.707 246.458 129.542 245.457 132.321C244.457 135.1 243.345 137.546 242.122 139.658C244.235 141.325 246.124 142.659 247.792 143.66C249.459 144.549 250.071 145.438 249.626 146.328C248.959 147.995 249.015 149.551 249.793 150.997C250.571 152.331 251.738 153.609 253.295 154.832C254.851 156.055 256.574 157.222 258.464 158.333C260.465 159.556 262.299 160.779 263.966 162.002C265.634 163.225 266.968 164.503 267.968 165.837C268.969 167.282 269.247 168.839 268.802 170.506C265.467 170.061 262.41 168.95 259.631 167.171C256.963 165.504 254.184 163.836 251.294 162.169C245.847 159.278 242.067 156.61 239.955 154.165C237.843 151.719 236.342 149.663 235.453 147.995C232.118 150.885 228.783 153.553 225.448 155.999C222.113 158.445 219.612 160.501 217.944 162.169C215.61 164.726 213.442 166.726 211.441 168.172C209.44 169.617 207.717 170.395 206.272 170.506C204.827 170.617 203.715 169.95 202.937 168.505C202.159 167.06 201.881 164.67 202.103 161.335C202.103 159.223 201.492 157.5 200.269 156.166C199.157 154.721 197.712 153.442 195.933 152.331C194.155 151.219 192.209 150.218 190.097 149.329C188.096 148.44 186.151 147.495 184.261 146.494C182.482 145.383 180.87 144.215 179.425 142.993C178.091 141.659 177.313 139.991 177.091 137.99C176.868 135.433 177.146 132.154 177.925 128.152C178.703 124.039 179.592 119.981 180.592 115.98C181.815 111.422 183.149 106.53 184.594 101.306C182.705 100.083 181.593 98.1375 181.259 95.4695C181.037 92.6904 181.204 89.5222 181.76 85.9649C182.316 82.4076 183.094 78.5168 184.094 74.2925C185.206 69.9571 186.206 65.6216 187.096 61.2862C187.763 58.8405 188.485 57.173 189.263 56.2837C190.153 55.2832 191.042 54.8386 191.931 54.9497C192.821 55.0609 193.766 55.5611 194.766 56.4505C195.767 57.2286 196.767 58.0624 197.768 58.9517C198.768 59.841 199.769 60.6192 200.769 61.2862C201.769 61.9532 202.77 62.2311 203.77 62.1199C205.216 61.6752 206.327 61.2862 207.105 60.9527C207.884 60.6192 208.828 60.1745 209.94 59.6187C211.163 58.9517 212.775 58.1735 214.776 57.2842C216.777 56.3949 219.778 55.2277 223.78 53.7825C225.003 53.3378 226.004 53.0599 226.782 52.9488C227.671 52.8376 228.338 52.5597 228.783 52.115ZM221.279 68.7898C219.167 68.7898 216.888 69.5124 214.442 70.9575C212.108 72.4027 209.773 74.0702 207.439 75.96C205.216 77.7386 203.103 79.5729 201.102 81.4627C199.102 83.3525 197.49 84.6865 196.267 85.4646C196.044 86.9098 195.933 89.1331 195.933 92.1345C196.044 95.0248 196.156 98.0819 196.267 101.306C196.378 104.418 196.434 107.42 196.434 110.31C196.545 113.089 196.489 115.09 196.267 116.313C195.822 120.093 196.267 123.705 197.601 127.152C199.046 130.487 200.825 133.822 202.937 137.157C204.604 138.824 206.272 139.658 207.939 139.658C209.162 139.658 210.552 139.102 212.108 137.99C213.775 136.879 215.443 135.489 217.11 133.822L218.778 132.154C217.888 131.376 216.61 130.32 214.943 128.986C213.386 127.541 211.774 126.04 210.107 124.484C208.551 122.927 207.161 121.371 205.938 119.815C204.827 118.147 204.382 116.702 204.604 115.479C205.271 113.589 205.494 112.089 205.271 110.977C205.049 109.754 204.771 108.754 204.437 107.976C204.104 107.197 203.937 106.642 203.937 106.308C203.937 105.975 204.437 105.697 205.438 105.474C206.661 106.475 207.884 107.475 209.106 108.476C210.107 109.365 211.163 110.254 212.275 111.144C213.497 112.033 214.553 112.922 215.443 113.812C216.666 115.479 217.777 117.369 218.778 119.481C219.889 121.482 221.279 122.927 222.946 123.817C225.392 124.706 227.06 125.54 227.949 126.318C228.616 125.317 229.45 123.817 230.45 121.816C231.451 119.815 232.451 117.703 233.452 115.479C234.563 113.256 235.508 111.144 236.286 109.143C237.176 107.142 237.731 105.641 237.954 104.641C235.842 102.195 234.23 99.1935 233.118 95.6363C232.006 91.9678 231.062 88.4661 230.283 85.1311C229.505 81.685 228.727 78.628 227.949 75.96C227.171 73.1809 226.059 71.3466 224.614 70.4573C224.169 70.0126 223.725 69.6236 223.28 69.2901C222.835 68.9566 222.168 68.7898 221.279 68.7898Z" fill="#0487AB"/>
<path d="M21.6621 118.481L18.2113 105.54L0.446173 110.278L10.4035 125.734L21.6621 118.481ZM33.8347 118.147L32.5021 131.473L40.5125 132.274L44.9781 125.576L33.8347 118.147ZM35.8357 116.646L31.6006 103.941L31.3653 104.02L31.1332 104.107L35.8357 116.646ZM38.6704 115.146L46.706 125.86L46.706 125.86L38.6704 115.146ZM40.8381 112.144L53.2006 117.295H53.2006L40.8381 112.144ZM41.1716 106.141L27.8672 104.606L27.6827 106.205L27.8824 107.803L41.1716 106.141ZM41.6719 101.806L54.9763 103.341L56.6987 88.4133H41.6719V101.806ZM39.5041 100.305L49.5139 91.4076L49.4995 91.3913L49.4849 91.375L39.5041 100.305ZM35.6689 94.6358L22.8859 98.6305L23.041 99.1268L23.2342 99.6097L35.6689 94.6358ZM34.8352 89.6333L21.4766 88.6791L21.4425 89.1556V89.6333H34.8352ZM35.8357 85.1311L23.5259 79.8555L23.4264 80.0877L23.3357 80.3234L35.8357 85.1311ZM37.8367 80.2954L50.2714 85.2693L50.2714 85.2693L37.8367 80.2954ZM38.8372 74.9595L25.4651 74.2166L25.4445 74.5878V74.9595H38.8372ZM38.6704 68.9566L25.2984 69.6995L25.3189 70.0683L25.3597 70.4355L38.6704 68.9566ZM38.1702 62.9536L24.8511 64.3556L24.8551 64.3941L24.8594 64.4326L38.1702 62.9536ZM37.8367 56.9507H51.2293V52.9746L49.0597 49.6427L37.8367 56.9507ZM36.1692 42.6104L39.7536 55.5145L40.0815 55.4234L40.4043 55.3158L36.1692 42.6104ZM44.1731 42.2769L42.4031 55.5521L42.6426 55.584L42.8831 55.6073L44.1731 42.2769ZM54.6782 43.2774L53.4281 56.6116L53.4469 56.6133L53.4657 56.615L54.6782 43.2774ZM72.8537 40.2759L73.7859 26.9157L67.4525 26.4739L63.1012 31.0971L72.8537 40.2759ZM85.5266 42.6104L81.2915 55.3158L81.5183 55.3914L81.7476 55.4588L85.5266 42.6104ZM93.3638 46.4456L83.8937 55.9156L83.8937 55.9156L93.3638 46.4456ZM93.5305 50.9478L103.371 60.0318L103.539 59.8507L103.699 59.6636L93.5305 50.9478ZM83.6924 54.4495L84.9328 67.7846L85.4387 67.7375L85.9396 67.6523L83.6924 54.4495ZM73.8542 54.4495L70.4035 67.39L70.5046 67.4169L70.606 67.4423L73.8542 54.4495ZM70.8528 53.2823L60.1386 61.3178L60.7097 62.0793L61.3827 62.7523L70.8528 53.2823ZM70.3525 52.6153V39.2226H43.5673L59.6384 60.6508L70.3525 52.6153ZM68.685 54.4495L74.6745 66.4282L76.6183 65.4563L78.1551 63.9195L68.685 54.4495ZM65.5168 55.45L62.066 42.5095L61.9515 42.5401L61.8376 42.5726L65.5168 55.45ZM60.5144 57.1175L55.8119 44.5775L55.6756 44.6286L55.5405 44.6827L60.5144 57.1175ZM56.0122 59.6187L63.8894 70.4498L63.969 70.3919L64.0478 70.3328L56.0122 59.6187ZM54.5115 62.7869L41.3348 65.1826L41.4129 65.6119L41.5187 66.0351L54.5115 62.7869ZM53.3442 73.1253L41.0344 67.8497L40.9349 68.0818L40.8443 68.3176L53.3442 73.1253ZM51.51 77.961L63.9448 82.9349L63.9988 82.7997L64.0499 82.6634L51.51 77.961ZM50.3428 84.1306L63.7216 84.7388L50.3428 84.1306ZM51.1765 93.135L64.3398 90.6669L51.1765 93.135ZM55.3452 106.141L42.9669 111.254L55.6392 141.935L67.8058 111.05L55.3452 106.141ZM58.5134 100.972L54.2783 113.678L54.5544 113.77L54.8342 113.85L58.5134 100.972ZM59.6807 104.641H46.288V104.975L46.3047 105.309L59.6807 104.641ZM59.0137 113.145L72.2241 115.347L72.2299 115.312L72.2354 115.277L59.0137 113.145ZM56.8459 122.316L44.0904 118.234L39.188 133.554L55.1429 135.6L56.8459 122.316ZM68.3516 122.816L69.2424 136.179L69.4422 136.166L69.6416 136.147L68.3516 122.816ZM77.1892 121.649L79.5849 134.826L79.8103 134.785L80.0342 134.736L77.1892 121.649ZM83.5256 120.148L86.9764 133.089L87.25 133.016L87.5203 132.931L83.5256 120.148ZM87.6943 119.648L84.789 132.722L84.7891 132.722L87.6943 119.648ZM89.862 121.816L77.2757 126.393L77.3483 126.592L77.4273 126.79L89.862 121.816ZM90.3623 127.485L76.9812 126.928L76.9696 127.206V127.485H90.3623ZM88.1946 128.486L89.2217 141.839H89.2217L88.1946 128.486ZM77.0224 129.486L74.8207 116.276L74.7578 116.286L74.695 116.297L77.0224 129.486ZM72.8537 131.654L75.897 144.696L80.4141 143.642L83.3117 140.02L72.8537 131.654ZM52.844 136.323L49.8008 123.28L41.4027 125.24L39.7114 133.696L52.844 136.323ZM52.177 138.824L39.7422 133.85L39.2945 134.969L39.0538 136.151L52.177 138.824ZM50.843 153.831L37.4966 154.943L37.5119 155.127L37.5323 155.31L50.843 153.831ZM51.1765 162.169L63.6113 167.143L64.2075 165.652L64.4346 164.063L51.1765 162.169ZM51.1765 166.171L57.1659 154.192L56.3146 153.766L55.4116 153.465L51.1765 166.171ZM54.0112 167.671L60.4243 155.914L60.4243 155.914L54.0112 167.671ZM58.6802 172.174L69.2517 163.951L69.1716 163.848L69.0895 163.747L58.6802 172.174ZM60.0142 174.008L72.7195 169.773L72.4186 168.87L71.9929 168.018L60.0142 174.008ZM59.6807 174.675L55.4456 161.969L54.5426 162.27L53.6913 162.696L59.6807 174.675ZM58.6802 175.342L50.6446 164.628L49.8831 165.199L49.2101 165.872L58.6802 175.342ZM57.8464 177.343L44.7727 174.438L44.6768 174.869L44.6095 175.306L57.8464 177.343ZM58.6802 184.68L46.7014 190.669L46.7014 190.669L58.6802 184.68ZM61.6816 190.016L73.1657 183.125L73.0592 182.948L72.9472 182.773L61.6816 190.016ZM63.5159 194.685L50.2789 196.721L50.3385 197.108L50.4205 197.491L63.5159 194.685ZM61.1814 199.854L51.7113 190.384L49.3066 192.788L48.3405 196.049L61.1814 199.854ZM57.1794 206.524L48.7341 196.129L48.569 196.264L48.4082 196.403L57.1794 206.524ZM52.0102 207.191L45.1198 218.675L45.2807 218.771L45.4443 218.863L52.0102 207.191ZM47.8415 199.854L60.7189 196.174L60.7046 196.125L60.69 196.075L47.8415 199.854ZM47.0078 182.845L60.3644 183.828L60.5762 180.947L59.5819 178.235L47.0078 182.845ZM44.0063 173.174L30.911 175.98L30.9585 176.202L31.0136 176.422L44.0063 173.174ZM42.3389 164.336L29.0496 165.998L29.0781 166.226L29.1144 166.452L42.3389 164.336ZM41.3384 156.833L28.0007 158.045L28.0318 158.387L28.0803 158.727L41.3384 156.833ZM40.3379 150.33L53.3745 147.262L52.9208 145.334L51.9282 143.619L40.3379 150.33ZM38.6704 144.327L52.04 145.113L52.0412 145.091L52.0424 145.07L38.6704 144.327ZM39.6709 138.49L52.5194 142.269L56.2241 129.673L43.7038 125.719L39.6709 138.49ZM32.8342 135.823L21.5757 143.076L23.708 146.385L27.2923 148.015L32.8342 135.823ZM21.6621 118.481L25.1129 131.421C25.4367 131.335 26.1349 131.206 27.3315 131.206V117.814V104.421C24.3039 104.421 21.2225 104.737 18.2113 105.54L21.6621 118.481ZM27.3315 117.814V131.206C28.9739 131.206 30.6963 131.293 32.5021 131.473L33.8347 118.147L35.1673 104.821C32.5265 104.557 29.9134 104.421 27.3315 104.421V117.814ZM33.8347 118.147L44.9781 125.576C43.5929 127.654 41.7791 128.721 40.5382 129.186L35.8357 116.646L31.1332 104.107C28.1136 105.239 24.9658 107.307 22.6914 110.718L33.8347 118.147ZM35.8357 116.646L40.0708 129.352C42.5093 128.539 44.7278 127.344 46.706 125.86L38.6704 115.146L30.6348 104.432C30.8344 104.282 31.1631 104.087 31.6006 103.941L35.8357 116.646ZM38.6704 115.146L46.706 125.86C50.0005 123.389 51.9946 120.19 53.2006 117.295L40.8381 112.144L28.4757 106.993C28.57 106.767 29.119 105.569 30.6348 104.432L38.6704 115.146ZM40.8381 112.144L53.2006 117.295C55.1337 112.656 54.8735 107.782 54.4609 104.48L41.1716 106.141L27.8824 107.803C27.9294 108.179 27.9516 108.459 27.9609 108.654C27.9703 108.852 27.9648 108.927 27.9663 108.9C27.9677 108.876 27.9785 108.695 28.039 108.392C28.0992 108.091 28.2222 107.602 28.4757 106.993L40.8381 112.144ZM41.1716 106.141L54.476 107.676L54.9763 103.341L41.6719 101.806L28.3675 100.271L27.8672 104.606L41.1716 106.141ZM41.6719 101.806V88.4133C45.283 88.4133 47.6583 89.95 48.3363 90.4194C48.7976 90.7388 49.1084 91.0131 49.2659 91.1598C49.4303 91.3129 49.5134 91.4069 49.5139 91.4076L39.5041 100.305L29.4943 109.203C30.3199 110.132 31.5224 111.357 33.0898 112.442C34.4904 113.412 37.5049 115.199 41.6719 115.199V101.806ZM39.5041 100.305L49.4849 91.375C48.8505 90.666 48.4526 90.1422 48.2209 89.7997C47.9816 89.4459 48.0013 89.4058 48.1037 89.6619L35.6689 94.6358L23.2342 99.6097C24.7184 103.32 27.1226 106.552 29.5234 109.235L39.5041 100.305ZM35.6689 94.6358L48.452 90.6411C48.2231 89.9086 48.2279 89.5984 48.2279 89.6333H34.8352H21.4425C21.4425 92.7808 22.0032 95.8057 22.8859 98.6305L35.6689 94.6358ZM34.8352 89.6333L48.1938 90.5875C48.2115 90.3407 48.2586 90.1393 48.3357 89.9388L35.8357 85.1311L23.3357 80.3234C22.3012 83.0132 21.6813 85.8133 21.4766 88.6791L34.8352 89.6333ZM35.8357 85.1311L48.1455 90.4067C48.8579 88.7446 49.5664 87.0319 50.2714 85.2693L37.8367 80.2954L25.4019 75.3215C24.7729 76.894 24.1475 78.4051 23.5259 79.8555L35.8357 85.1311ZM37.8367 80.2954L50.2714 85.2693C51.6039 81.9382 52.2298 78.4628 52.2298 74.9595H38.8372H25.4445C25.4445 75.2358 25.4034 75.3178 25.4019 75.3215L37.8367 80.2954ZM38.8372 74.9595L52.2092 75.7024C52.3617 72.957 52.2851 70.2128 51.9812 67.4776L38.6704 68.9566L25.3597 70.4355C25.5004 71.7023 25.5349 72.9601 25.4651 74.2166L38.8372 74.9595ZM38.6704 68.9566L52.0424 68.2137C51.9176 65.9657 51.7303 63.7193 51.4809 61.4747L38.1702 62.9536L24.8594 64.4326C25.0547 66.19 25.2009 67.9455 25.2984 69.6995L38.6704 68.9566ZM38.1702 62.9536L51.4892 61.5516C51.31 59.8492 51.2293 58.3191 51.2293 56.9507H37.8367H24.444C24.444 59.3619 24.5856 61.8338 24.8511 64.3556L38.1702 62.9536ZM37.8367 56.9507L49.0597 49.6427C47.709 47.5685 46.9346 46.1412 46.5406 45.2688C46.3495 44.8456 46.3228 44.7165 46.3562 44.8355C46.3794 44.9186 46.5604 45.5661 46.5604 46.6123H33.1677H19.7751C19.7751 50.5239 21.0912 53.9946 22.1293 56.2933C23.2916 58.867 24.8517 61.5528 26.6136 64.2587L37.8367 56.9507ZM33.1677 46.6123H46.5604C46.5604 47.6731 46.2872 49.8567 44.6322 52.0633C42.9605 54.2923 40.8891 55.1991 39.7536 55.5145L36.1692 42.6104L32.5847 29.7063C29.4483 30.5775 25.8761 32.4292 23.204 35.9921C20.5485 39.5327 19.7751 43.4394 19.7751 46.6123H33.1677ZM36.1692 42.6104L40.4043 55.3158C39.9501 55.4672 39.8302 55.4244 40.2284 55.4078C40.6154 55.3917 41.3182 55.4074 42.4031 55.5521L44.1731 42.2769L45.9431 29.0017C41.661 28.4308 36.6823 28.3223 31.9341 29.905L36.1692 42.6104ZM44.1731 42.2769L42.8831 55.6073C46.3429 55.9421 49.8579 56.2769 53.4281 56.6116L54.6782 43.2774L55.9283 29.9432C52.3839 29.6109 48.8955 29.2787 45.4631 28.9465L44.1731 42.2769ZM54.6782 43.2774L53.4657 56.615C57.7636 57.0058 61.9718 57.0806 66.0742 56.8071L65.1833 43.4441L64.2925 30.0811C61.7249 30.2523 58.9297 30.216 55.8907 29.9397L54.6782 43.2774ZM65.1833 43.4441L66.0742 56.8071C71.7802 56.4267 77.8995 54.4557 82.6063 49.4548L72.8537 40.2759L63.1012 31.0971C63.5987 30.5685 64.1296 30.2556 64.4894 30.107C64.8019 29.9779 64.8009 30.0472 64.2925 30.0811L65.1833 43.4441ZM72.8537 40.2759L71.9216 53.6361C75.8336 53.909 78.9108 54.5222 81.2915 55.3158L85.5266 42.6104L89.7617 29.905C84.8054 28.2529 79.4341 27.3098 73.7859 26.9157L72.8537 40.2759ZM85.5266 42.6104L81.7476 55.4588C83.1489 55.871 83.9958 56.2181 84.4338 56.4324C84.6404 56.5335 84.6785 56.5675 84.597 56.5129C84.5187 56.4603 84.2512 56.2732 83.8937 55.9156L93.3638 46.4456L102.834 36.9756C98.9207 33.0624 93.5859 31.0209 89.3055 29.7619L85.5266 42.6104ZM93.3638 46.4456L83.8937 55.9156C83.1009 55.1228 81.2424 52.8395 81.1058 49.1507C80.9695 45.4702 82.6469 43.0663 83.362 42.232L93.5305 50.9478L103.699 59.6636C105.748 57.273 108.065 53.3405 107.873 48.1593C107.681 42.9698 105.072 39.2135 102.834 36.9756L93.3638 46.4456ZM93.5305 50.9478L83.6895 41.8638C84.5598 40.921 85.3267 40.4612 85.566 40.3256C85.834 40.1739 85.8821 40.1821 85.5796 40.2898C85.2948 40.3912 84.8164 40.5393 84.0982 40.713C83.3875 40.8848 82.5097 41.0655 81.4451 41.2467L83.6924 54.4495L85.9396 67.6523C88.9645 67.1374 91.9197 66.4646 94.5614 65.5243C96.8952 64.6936 100.499 63.1435 103.371 60.0318L93.5305 50.9478ZM83.6924 54.4495L82.4519 41.1144C80.304 41.3142 78.7318 41.3903 77.6478 41.3903C77.1133 41.3903 76.7916 41.3715 76.6425 41.3584C76.4649 41.3428 76.6624 41.3467 77.1024 41.4567L73.8542 54.4495L70.606 67.4423C74.8887 68.513 80.3257 68.2132 84.9328 67.7846L83.6924 54.4495ZM73.8542 54.4495L77.305 41.509C76.699 41.3474 76.5592 41.2845 76.7074 41.3422C76.7841 41.372 77.1251 41.5059 77.6067 41.7668C77.8571 41.9024 78.2212 42.1131 78.6482 42.4096C79.0622 42.6971 79.666 43.1554 80.3228 43.8122L70.8528 53.2823L61.3827 62.7523C63.7111 65.0807 66.4263 66.0834 66.9992 66.3062C68.1478 66.7529 69.342 67.1069 70.4035 67.39L73.8542 54.4495ZM70.8528 53.2823L81.5669 45.2467C81.0667 44.5797 81.6086 45.3023 81.1917 44.7464C81.1415 44.6795 81.2114 44.7726 81.1624 44.7074C81.1381 44.675 81.1732 44.7217 81.1492 44.6898C81.1427 44.681 81.1495 44.6901 81.143 44.6815C81.1425 44.6809 81.1404 44.678 81.14 44.6774C81.1382 44.6751 81.1388 44.6758 81.137 44.6735C81.1213 44.6526 81.1084 44.6353 81.0979 44.6214C80.9416 44.4129 81.2256 44.7916 81.0745 44.5901C81.0734 44.5887 81.0751 44.5909 81.074 44.5895C81.0736 44.5889 81.074 44.5895 81.0735 44.5889C81.073 44.5881 81.0732 44.5884 81.0727 44.5877C81.0715 44.5862 81.0729 44.588 81.0718 44.5866C81.0718 44.5865 81.0717 44.5864 81.0716 44.5863C81.0716 44.5862 81.0715 44.5861 81.0714 44.5861C81.0714 44.586 81.0713 44.5859 81.0713 44.5858C81.0712 44.5857 81.0711 44.5856 81.0711 44.5856C81.0657 44.5785 81.075 44.5908 81.0697 44.5838C81.0683 44.5819 81.07 44.5841 81.0686 44.5823C81.0662 44.579 81.0693 44.5832 81.0672 44.5804C81.0667 44.5797 81.0672 44.5804 81.0668 44.5799C81.0667 44.5797 81.0668 44.5799 81.0667 44.5797C81.0667 44.5797 81.0667 44.5797 81.0667 44.5797C81.0667 44.5797 81.0667 44.5797 81.0667 44.5797C81.0667 44.5797 81.0667 44.5797 81.0667 44.5797C81.0667 44.5797 81.0667 44.5797 70.3525 52.6153C59.6384 60.6508 59.6384 60.6508 59.6384 60.6508C59.6384 60.6508 59.6384 60.6508 59.6384 60.6508C59.6384 60.6509 59.6384 60.6509 59.6384 60.6509C59.6384 60.6509 59.6384 60.6509 59.6384 60.6509C59.6386 60.6511 59.6383 60.6507 59.6385 60.651C59.6387 60.6512 59.6386 60.6512 59.6389 60.6515C59.6389 60.6515 59.6389 60.6515 59.6389 60.6516C59.639 60.6516 59.639 60.6516 59.639 60.6517C59.639 60.6517 59.639 60.6517 59.6391 60.6518C59.6391 60.6518 59.6391 60.6518 59.6391 60.6519C59.6395 60.6523 59.6391 60.6518 59.6395 60.6523C59.6398 60.6528 59.6399 60.6529 59.6403 60.6534C59.6411 60.6545 59.6417 60.6552 59.6428 60.6567C59.6463 60.6614 59.6424 60.6561 59.6462 60.6613C59.6475 60.663 59.6534 60.6708 59.656 60.6743C59.6729 60.6969 59.6514 60.6682 59.6696 60.6925C59.7182 60.7572 59.6941 60.7251 59.7634 60.8176C60.2245 61.4324 59.3675 60.2896 59.8338 60.9114C60.0162 61.1546 59.7321 60.7758 59.9198 61.026C60.0875 61.2496 59.7996 60.8658 59.9686 61.0912C60.0718 61.2287 59.891 60.9877 59.9945 61.1257C60.0129 61.1502 60.0027 61.1366 60.0214 61.1615C60.1034 61.2709 59.9947 61.126 60.078 61.2371C60.2122 61.4159 60.0032 61.1372 60.1386 61.3178L70.8528 53.2823ZM70.3525 52.6153V66.0079C68.9572 66.0079 66.5177 65.7879 63.9068 64.3519C60.9863 62.7456 58.8564 60.1615 57.7792 57.1993C56.0542 52.4556 57.6161 48.5085 57.7766 48.0671C58.2021 46.897 58.6972 46.0586 58.8913 45.7383C59.1374 45.3323 59.3547 45.0247 59.4797 44.8527C59.7279 44.5115 59.9266 44.2763 59.9842 44.2084C60.0264 44.1587 60.0584 44.1222 60.0769 44.1012C60.096 44.0796 60.1073 44.0671 60.1093 44.0649C60.1118 44.0622 60.0932 44.0826 60.0476 44.1308C60.0032 44.1778 59.9424 44.2414 59.8625 44.3238C59.7013 44.49 59.4879 44.7066 59.215 44.9794L68.685 54.4495L78.1551 63.9195C78.7917 63.2829 79.4248 62.6371 79.9288 62.0827C80.1055 61.8884 80.6262 61.3163 81.142 60.6071C81.1934 60.5364 82.2377 59.1775 82.9493 57.2208C83.1167 56.7603 84.6803 52.7988 82.9519 48.0456C81.873 45.0786 79.7401 42.4909 76.8151 40.8822C74.1999 39.4438 71.7548 39.2226 70.3525 39.2226V52.6153ZM68.685 54.4495L62.6956 42.4708C62.9744 42.3314 63.1937 42.2363 63.3182 42.1842C63.4496 42.1291 63.5432 42.0938 63.5854 42.0782C63.6628 42.0495 63.6551 42.0548 63.5265 42.0954C63.4069 42.1331 63.2263 42.1877 62.9735 42.26C62.7233 42.3315 62.4224 42.4145 62.066 42.5095L65.5168 55.45L68.9676 68.3904C70.2675 68.0438 72.7651 67.3829 74.6745 66.4282L68.685 54.4495ZM65.5168 55.45L61.8376 42.5726C59.8828 43.1311 57.871 43.8054 55.8119 44.5775L60.5144 57.1175L65.2169 69.6574C66.715 69.0956 68.0383 68.6581 69.1961 68.3273L65.5168 55.45ZM60.5144 57.1175L55.5405 44.6827C52.8649 45.7529 50.3206 47.1466 47.9766 48.9046L56.0122 59.6187L64.0478 70.3328C64.3718 70.0898 64.8289 69.816 65.4883 69.5522L60.5144 57.1175ZM56.0122 59.6187L48.135 48.7876C46.2285 50.1741 44.0676 52.2809 42.6165 55.3445C41.0892 58.5687 40.7565 62.0017 41.3348 65.1826L54.5115 62.7869L67.6881 60.3911C68.0441 62.3493 67.8504 64.6428 66.8234 66.8109C65.8724 68.8185 64.5731 69.9526 63.8894 70.4498L56.0122 59.6187ZM54.5115 62.7869L41.5187 66.0351C41.6354 66.5018 41.6444 66.6955 41.6422 66.6582C41.6399 66.619 41.6211 66.2497 41.7496 65.6502L54.845 68.4563L67.9403 71.2625C68.8484 67.0249 68.3534 62.9355 67.5043 59.5387L54.5115 62.7869ZM54.845 68.4563L41.7496 65.6502C41.6086 66.308 41.3819 67.0388 41.0344 67.8497L53.3442 73.1253L65.654 78.4009C66.6405 76.0991 67.4143 73.7173 67.9403 71.2625L54.845 68.4563ZM53.3442 73.1253L40.8443 68.3176C40.2724 69.8045 39.6474 71.4522 38.9701 73.2585L51.51 77.961L64.0499 82.6634C64.7066 80.9124 65.3045 79.3363 65.8442 77.933L53.3442 73.1253ZM51.51 77.961L39.0752 72.9871C37.69 76.45 37.1202 80.0852 36.9639 83.5225L50.3428 84.1306L63.7216 84.7388C63.7532 84.0445 63.8179 83.557 63.8772 83.2436C63.9367 82.9291 63.9799 82.847 63.9448 82.9349L51.51 77.961ZM50.3428 84.1306L36.9639 83.5225C36.7894 87.3613 37.2374 91.4655 38.0132 95.6031L51.1765 93.135L64.3398 90.6669C63.7816 87.69 63.6738 85.7912 63.7216 84.7388L50.3428 84.1306ZM51.1765 93.135L38.0132 95.6031C38.9143 100.409 40.6666 105.685 42.9669 111.254L55.3452 106.141L67.7235 101.029C65.7995 96.3705 64.7727 92.976 64.3398 90.6669L51.1765 93.135ZM55.3452 106.141L67.8058 111.05C68.4576 109.396 68.7407 108.931 68.6397 109.096C68.5853 109.185 68.4349 109.424 68.1832 109.749C67.9505 110.049 67.4749 110.626 66.7363 111.269C65.7142 112.16 60.929 115.894 54.2783 113.678L58.5134 100.972L62.7486 88.2668C55.7644 85.9387 50.597 89.8057 49.1442 91.071C47.4028 92.5877 46.3205 94.2541 45.8025 95.0992C44.6454 96.9871 43.6779 99.2187 42.8846 101.233L55.3452 106.141ZM58.5134 100.972L54.8342 113.85C48.8262 112.133 46.9679 107.189 46.6266 106.117C46.206 104.795 46.288 104.055 46.288 104.641H59.6807H73.0733C73.0733 103.003 72.9607 100.54 72.1511 97.9953C71.4207 95.7 68.9788 90.0337 62.1927 88.0948L58.5134 100.972ZM59.6807 104.641L46.3047 105.309C46.3505 106.225 46.2723 108.033 45.7919 111.012L59.0137 113.145L72.2354 115.277C72.8666 111.364 73.2332 107.503 73.0566 103.972L59.6807 104.641ZM59.0137 113.145L45.8032 110.943C45.3373 113.739 44.755 116.157 44.0904 118.234L56.8459 122.316L69.6014 126.398C70.7155 122.916 71.5784 119.221 72.2241 115.347L59.0137 113.145ZM56.8459 122.316L55.1429 135.6C60.092 136.234 64.8254 136.474 69.2424 136.179L68.3516 122.816L67.4607 109.453C65.2078 109.603 62.2708 109.509 58.549 109.032L56.8459 122.316ZM68.3516 122.816L69.6416 136.147C73.3264 135.79 76.6625 135.357 79.5849 134.826L77.1892 121.649L74.7934 108.472C72.8246 108.83 70.2689 109.175 67.0615 109.486L68.3516 122.816ZM77.1892 121.649L80.0342 134.736C82.7021 134.156 85.0342 133.607 86.9764 133.089L83.5256 120.148L80.0748 107.208C78.6821 107.579 76.7898 108.03 74.3442 108.562L77.1892 121.649ZM83.5256 120.148L87.5203 132.931C87.8671 132.823 87.8327 132.863 87.4974 132.904C87.2009 132.939 86.1959 133.034 84.789 132.722L87.6943 119.648L90.5996 106.574C86.1217 105.579 81.9845 106.598 79.5309 107.365L83.5256 120.148ZM87.6943 119.648L84.7891 132.722C82.8107 132.282 80.962 131.272 79.5166 129.827C78.17 128.48 77.5455 127.134 77.2757 126.393L89.862 121.816L102.448 117.239C100.919 113.034 97.2824 108.059 90.5996 106.574L87.6943 119.648ZM89.862 121.816L77.4273 126.79C77.2952 126.459 77.2047 126.179 77.1436 125.966C77.0822 125.753 77.0436 125.583 77.0203 125.469C76.9757 125.25 76.9724 125.161 76.9798 125.244C76.9865 125.32 76.9983 125.497 77.0019 125.793C77.0055 126.086 77.0007 126.461 76.9812 126.928L90.3623 127.485L103.743 128.043C103.86 125.251 103.891 120.827 102.297 116.842L89.862 121.816ZM90.3623 127.485H76.9696C76.9696 124.447 78.048 121.611 79.8326 119.415C81.4327 117.446 83.2117 116.452 84.208 115.992C85.2438 115.514 86.0747 115.318 86.4518 115.241C86.8679 115.156 87.1302 115.135 87.1674 115.132L88.1946 128.486L89.2217 141.839C90.4489 141.744 92.8906 141.485 95.4327 140.312C98.172 139.048 103.755 135.168 103.755 127.485H90.3623ZM88.1946 128.486L87.1674 115.132C85.8449 115.234 84.2215 115.339 82.2825 115.447L83.0254 128.819L83.7683 142.191C85.8312 142.077 87.6539 141.959 89.2217 141.839L88.1946 128.486ZM83.0254 128.819L82.2825 115.447C79.7867 115.586 77.2987 115.863 74.8207 116.276L77.0224 129.486L79.2242 142.697C80.7481 142.443 82.2621 142.275 83.7683 142.191L83.0254 128.819ZM77.0224 129.486L74.695 116.297C70.7257 116.998 65.9352 118.863 62.3958 123.287L72.8537 131.654L83.3117 140.02C81.5509 142.221 79.5396 142.641 79.3499 142.675L77.0224 129.486ZM72.8537 131.654L69.8105 118.611L49.8008 123.28L52.844 136.323L55.8872 149.365L75.897 144.696L72.8537 131.654ZM52.844 136.323L39.7114 133.696C39.6766 133.87 39.6464 134.011 39.6213 134.12C39.596 134.231 39.5786 134.299 39.57 134.331C39.5611 134.365 39.5663 134.342 39.5883 134.273C39.5997 134.238 39.6173 134.184 39.6416 134.116C39.6658 134.048 39.6991 133.958 39.7422 133.85L52.177 138.824L64.6118 143.798C65.2975 142.083 65.7089 140.288 65.9766 138.949L52.844 136.323ZM52.177 138.824L39.0538 136.151C37.6957 142.818 37.0177 149.196 37.4966 154.943L50.843 153.831L64.1894 152.719C64.0013 150.462 64.2127 146.836 65.3001 141.497L52.177 138.824ZM50.843 153.831L37.5323 155.31C37.7337 157.123 37.8391 158.483 37.8779 159.452C37.9217 160.547 37.8594 160.688 37.9185 160.275L51.1765 162.169L64.4346 164.063C64.927 160.615 64.5884 156.264 64.1538 152.352L50.843 153.831ZM51.1765 162.169L38.7417 157.195C38.3681 158.129 38.008 159.073 37.7208 159.935C37.5795 160.358 37.402 160.922 37.2458 161.547C37.1568 161.902 36.7834 163.357 36.7834 165.17H50.176H63.5687C63.5687 165.69 63.5371 166.122 63.5061 166.432C63.4744 166.75 63.4353 167.016 63.4021 167.216C63.3375 167.603 63.2688 167.893 63.2313 168.043C63.1585 168.334 63.106 168.481 63.1315 168.405C63.1778 168.266 63.3179 167.876 63.6113 167.143L51.1765 162.169ZM50.176 165.17H36.7834C36.7834 174.511 44.5247 178.07 46.9414 178.876L51.1765 166.171L55.4116 153.465C56.1623 153.715 58.0493 154.437 59.8962 156.284C62.072 158.46 63.5687 161.608 63.5687 165.17H50.176ZM51.1765 166.171L45.1871 178.149C45.6383 178.375 46.4177 178.785 47.5981 179.429L54.0112 167.671L60.4243 155.914C59.1591 155.224 58.0487 154.633 57.1659 154.192L51.1765 166.171ZM54.0112 167.671L47.5981 179.429C47.1227 179.169 46.8379 178.954 46.754 178.888C46.6609 178.816 46.6747 178.818 46.7993 178.938C47.0631 179.192 47.5495 179.709 48.2708 180.6L58.6802 172.174L69.0895 163.747C67.0783 161.263 64.1288 157.935 60.4243 155.914L54.0112 167.671ZM58.6802 172.174L48.1086 180.396C48.278 180.614 48.418 180.796 48.5314 180.945C48.6467 181.097 48.7223 181.199 48.7662 181.26C48.7873 181.289 48.7945 181.299 48.7906 181.294C48.7878 181.29 48.7638 181.255 48.7249 181.197C48.6893 181.144 48.6139 181.029 48.5168 180.87C48.4668 180.787 48.4007 180.676 48.3247 180.542C48.2505 180.41 48.1493 180.225 48.0354 179.997L60.0142 174.008L71.9929 168.018C71.3572 166.747 70.5333 165.65 70.4284 165.505C70.084 165.032 69.6788 164.5 69.2517 163.951L58.6802 172.174ZM60.0142 174.008L47.3088 178.243C46.7115 176.451 45.9422 172.622 48.0354 168.435C50.1286 164.249 53.6538 162.567 55.4456 161.969L59.6807 174.675L63.9158 187.38C66.041 186.672 69.7886 184.823 71.9929 180.414C74.1972 176.005 73.4279 171.898 72.7195 169.773L60.0142 174.008ZM59.6807 174.675L53.6913 162.696C52.3037 163.39 51.144 164.253 50.6446 164.628L58.6802 175.342L66.7158 186.056C66.8094 185.986 66.7935 186.001 66.6927 186.068C66.6387 186.104 66.5327 186.174 66.3835 186.263C66.2418 186.348 65.9966 186.49 65.67 186.654L59.6807 174.675ZM58.6802 175.342L49.2101 165.872C45.9274 169.155 45.0361 173.252 44.7727 174.438L57.8464 177.343L70.9202 180.248C70.9172 180.261 70.8969 180.352 70.8514 180.503C70.8072 180.651 70.7235 180.908 70.5841 181.243C70.3715 181.753 69.6989 183.263 68.1502 184.812L58.6802 175.342ZM57.8464 177.343L44.6095 175.306C43.8718 180.101 44.1295 185.525 46.7014 190.669L58.6802 184.68L70.6589 178.69C70.9271 179.227 71.0079 179.653 71.0284 179.833C71.046 179.987 71.0089 179.863 71.0834 179.379L57.8464 177.343ZM58.6802 184.68L46.7014 190.669C47.8742 193.015 49.1085 195.224 50.416 197.258L61.6816 190.016L72.9472 182.773C72.2538 181.695 71.4871 180.347 70.6589 178.69L58.6802 184.68ZM61.6816 190.016L50.1975 196.906C50.285 197.052 50.3435 197.161 50.3803 197.235C50.4171 197.308 50.429 197.34 50.4253 197.331C50.4194 197.315 50.3381 197.106 50.2789 196.721L63.5159 194.685L76.7528 192.648C76.1949 189.022 74.781 185.817 73.1657 183.125L61.6816 190.016ZM63.5159 194.685L50.4205 197.491C49.8816 194.976 50.4162 192.873 50.9767 191.632C51.4667 190.547 51.9487 190.146 51.7113 190.384L61.1814 199.854L70.6514 209.324C73.5421 206.433 78.4051 200.25 76.6112 191.878L63.5159 194.685ZM61.1814 199.854L48.3405 196.049C48.2486 196.359 48.1668 196.576 48.1077 196.715C48.0488 196.853 48.0178 196.902 48.0298 196.882C48.0426 196.861 48.1006 196.767 48.218 196.629C48.3369 196.489 48.5069 196.314 48.7341 196.129L57.1794 206.524L65.6247 216.918C70.1397 213.249 72.6393 208.326 74.0222 203.658L61.1814 199.854ZM57.1794 206.524L48.4082 196.403C49.0294 195.865 50.5482 194.798 52.9226 194.492C55.3994 194.172 57.4052 194.859 58.5761 195.518L52.0102 207.191L45.4443 218.863C48.3939 220.523 52.1506 221.599 56.3504 221.057C60.4479 220.528 63.662 218.628 65.9507 216.644L57.1794 206.524ZM52.0102 207.191L58.9007 195.707C59.845 196.273 60.4701 196.876 60.8305 197.282C61.1861 197.683 61.3452 197.961 61.3618 197.99C61.3815 198.025 61.3128 197.908 61.1846 197.584C61.0585 197.264 60.8985 196.803 60.7189 196.174L47.8415 199.854L34.9642 203.533C35.6968 206.097 36.6779 208.766 38.0731 211.222C39.4305 213.611 41.6199 216.575 45.1198 218.675L52.0102 207.191ZM47.8415 199.854L60.69 196.075C60.2795 194.679 59.8382 190.983 60.3644 183.828L47.0078 182.845L33.6512 181.863C33.0657 189.826 33.1803 197.469 34.9931 203.633L47.8415 199.854ZM47.0078 182.845L59.5819 178.235C58.5056 175.3 57.6505 172.531 56.9991 169.926L44.0063 173.174L31.0136 176.422C31.9185 180.042 33.0644 183.721 34.4338 187.456L47.0078 182.845ZM44.0063 173.174L57.1017 170.368C56.4776 167.455 55.9666 164.741 55.5633 162.221L42.3389 164.336L29.1144 166.452C29.6005 169.49 30.2011 172.668 30.911 175.98L44.0063 173.174ZM42.3389 164.336L55.6281 162.675C55.2862 159.94 54.9424 157.361 54.5964 154.939L41.3384 156.833L28.0803 158.727C28.4013 160.974 28.7245 163.397 29.0496 165.998L42.3389 164.336ZM41.3384 156.833L54.676 155.62C54.411 152.705 53.9946 149.897 53.3745 147.262L40.3379 150.33L27.3012 153.397C27.5705 154.541 27.8211 156.069 28.0007 158.045L41.3384 156.833ZM40.3379 150.33L51.9282 143.619C51.6434 143.127 52.1218 143.723 52.04 145.113L38.6704 144.327L25.3009 143.54C24.9967 148.71 26.5867 153.307 28.7475 157.04L40.3379 150.33ZM38.6704 144.327L52.0424 145.07C52.0975 144.079 52.2593 143.154 52.5194 142.269L39.6709 138.49L26.8224 134.712C25.9708 137.607 25.4657 140.572 25.2984 143.584L38.6704 144.327ZM39.6709 138.49L43.7038 125.719C42.2003 125.245 40.4302 124.564 38.3761 123.63L32.8342 135.823L27.2923 148.015C30.1296 149.304 32.9172 150.402 35.6379 151.261L39.6709 138.49ZM32.8342 135.823L44.0928 128.569L32.9207 111.228L21.6621 118.481L10.4035 125.734L21.5757 143.076L32.8342 135.823ZM150.926 26.2691L162.904 20.2797L152.789 0.0490608L139.914 18.6459L150.926 26.2691ZM151.926 29.2706L138.794 31.897L138.917 32.5152L139.098 33.1189L151.926 29.2706ZM152.593 33.9395L139.221 34.6824L139.242 35.0513L139.282 35.4185L152.593 33.9395ZM152.593 52.9488L139.216 52.2962L139.088 54.9246L139.964 57.4061L152.593 52.9488ZM154.761 57.9512L142.969 64.3007L143.077 64.5019L143.193 64.6994L154.761 57.9512ZM156.762 62.6201L143.979 66.6149L144.134 67.1112L144.327 67.5941L156.762 62.6201ZM157.762 69.1233H144.37V69.4022L144.381 69.6809L157.762 69.1233ZM156.762 79.6284L143.58 77.2624L143.284 78.9115L143.403 80.5826L156.762 79.6284ZM157.095 88.9663H143.703V89.2054L143.711 89.4443L157.095 88.9663ZM157.762 97.804L144.465 99.3997L144.469 99.4324L144.473 99.4651L157.762 97.804ZM159.263 104.974L146.492 109.007L146.587 109.308L146.696 109.604L159.263 104.974ZM162.598 109.643H175.991V102.626L170.221 98.6317L162.598 109.643ZM162.932 121.149L149.567 122.011L149.58 122.225L149.601 122.439L162.932 121.149ZM163.599 131.821L150.212 132.226L150.218 132.429L150.23 132.631L163.599 131.821ZM163.599 143.993L176.974 144.662V144.662L163.599 143.993ZM161.764 159.667L150.136 166.312L168.793 198.961L174.975 161.869L161.764 159.667ZM151.759 142.159L138.422 143.371L138.686 146.273L140.131 148.804L151.759 142.159ZM149.258 114.646L162.596 113.433L162.103 108.017L157.974 104.477L149.258 114.646ZM143.422 109.643L152.138 99.4746L137.448 86.8831L130.836 105.066L143.422 109.643ZM136.752 127.985L124.166 123.409L123.819 124.363L123.62 125.359L136.752 127.985ZM133.417 144.66L146.066 149.06L146.369 148.19L146.55 147.287L133.417 144.66ZM126.747 163.836L120.445 175.653L134.255 183.019L139.397 168.236L126.747 163.836ZM123.912 159L110.58 160.27L123.912 159ZM126.747 147.995L139.085 153.204L142.724 144.587L135.885 138.204L126.747 147.995ZM121.245 137.157L107.893 138.211L107.895 138.225L107.896 138.239L121.245 137.157ZM122.245 123.983L109.217 120.881L109.189 120.996L109.164 121.112L122.245 123.983ZM126.247 109.643L113.485 105.582V105.582L126.247 109.643ZM129.248 95.4695L115.932 94.0427L115.925 94.1059L115.919 94.1691L129.248 95.4695ZM131.75 72.1248L145.066 73.5515L145.46 69.8722L143.91 66.5125L131.75 72.1248ZM130.582 66.6221L143.958 65.9533V65.9533L130.582 66.6221ZM131.416 60.2857L144.122 64.5208L144.122 64.5208L131.416 60.2857ZM134.918 55.45L142.838 66.2499L142.838 66.2499L134.918 55.45ZM141.755 54.6162L138.743 67.6659L155.147 71.4515V54.6162H141.755ZM142.588 42.9439L129.42 40.5052L129.42 40.5052L142.588 42.9439ZM147.757 30.4378L137.469 21.864L137.469 21.864L147.757 30.4378ZM145.089 63.7874H158.482L132.246 59.9926L145.089 63.7874ZM141.254 76.9605L128.377 73.2812L128.344 73.3952L128.314 73.5097L141.254 76.9605ZM138.753 86.2984L151.685 89.7801L151.685 89.7801L138.753 86.2984ZM137.586 91.3008H124.193L150.021 96.2747L137.586 91.3008ZM139.42 87.4656L128.706 79.43L128.365 79.8851L128.063 80.3675L139.42 87.4656ZM141.588 86.4651L137.909 99.3425L138.788 99.5938L139.694 99.7232L141.588 86.4651ZM144.256 88.6328L133.542 96.6684L133.542 96.6684L144.256 88.6328ZM147.591 94.6358L135.416 100.216L160.801 92.434L147.591 94.6358ZM145.089 79.6284H131.697V80.7369L131.879 81.8302L145.089 79.6284ZM150.926 26.2691L138.947 32.2585C138.791 31.9464 138.773 31.7926 138.794 31.897L151.926 29.2706L165.059 26.6441C164.635 24.5252 163.95 22.3704 162.904 20.2797L150.926 26.2691ZM151.926 29.2706L139.098 33.1189C139.019 32.856 139.038 32.8336 139.085 33.1655C139.129 33.475 139.181 33.9683 139.221 34.6824L152.593 33.9395L165.965 33.1966C165.831 30.7851 165.532 28.0153 164.754 25.4222L151.926 29.2706ZM152.593 33.9395L139.282 35.4185C139.429 36.7399 139.534 38.7562 139.534 41.6099H152.927H166.319C166.319 38.2383 166.202 35.1411 165.904 32.4605L152.593 33.9395ZM152.927 41.6099H139.534C139.534 44.3132 139.433 47.8568 139.216 52.2962L152.593 52.9488L165.97 53.6013C166.198 48.9252 166.319 44.9096 166.319 41.6099H152.927ZM152.593 52.9488L139.964 57.4061C140.813 59.8106 141.801 62.1318 142.969 64.3007L154.761 57.9512L166.553 51.6018C166.164 50.8803 165.708 49.8666 165.222 48.4914L152.593 52.9488ZM154.761 57.9512L143.193 64.6994C143.372 65.0074 143.664 65.6067 143.979 66.6149L156.762 62.6201L169.545 58.6254C168.748 56.0764 167.706 53.5629 166.329 51.203L154.761 57.9512ZM156.762 62.6201L144.327 67.5941C144.21 67.3016 144.231 67.2431 144.275 67.533C144.319 67.8173 144.37 68.3308 144.37 69.1233H157.762H171.155C171.155 65.502 170.726 61.4684 169.197 57.6462L156.762 62.6201ZM157.762 69.1233L144.381 69.6809C144.434 70.9452 144.281 73.3559 143.58 77.2624L156.762 79.6284L169.944 81.9944C170.799 77.2301 171.313 72.6374 171.143 68.5658L157.762 69.1233ZM156.762 79.6284L143.403 80.5826C143.603 83.3785 143.703 86.1729 143.703 88.9663H157.095H170.488C170.488 85.5345 170.365 82.1036 170.12 78.6743L156.762 79.6284ZM157.095 88.9663L143.711 89.4443C143.834 92.8896 144.082 96.2107 144.465 99.3997L157.762 97.804L171.06 96.2083C170.775 93.839 170.579 91.2683 170.479 88.4883L157.095 88.9663ZM157.762 97.804L144.473 99.4651C144.887 102.774 145.536 105.979 146.492 109.007L159.263 104.974L172.034 100.941C171.656 99.7454 171.305 98.1701 171.052 96.1428L157.762 97.804ZM159.263 104.974L146.696 109.604C148.16 113.576 150.703 117.697 154.975 120.654L162.598 109.643L170.221 98.6317C171.603 99.5881 171.923 100.596 171.83 100.344L159.263 104.974ZM162.598 109.643H149.205C149.205 114.094 149.322 118.223 149.567 122.011L162.932 121.149L176.296 120.286C176.096 117.182 175.991 113.64 175.991 109.643H162.598ZM162.932 121.149L149.601 122.439C149.905 125.574 150.109 128.836 150.212 132.226L163.599 131.821L176.985 131.415C176.865 127.469 176.626 123.616 176.262 119.859L162.932 121.149ZM163.599 131.821L150.23 132.631C150.417 135.717 150.425 139.272 150.223 143.324L163.599 143.993L176.974 144.662C177.216 139.822 177.224 135.261 176.967 131.01L163.599 131.821ZM163.599 143.993L150.223 143.324C150.033 147.11 149.498 151.8 148.554 157.466L161.764 159.667L174.975 161.869C176.031 155.529 176.719 149.77 176.974 144.662L163.599 143.993ZM161.764 159.667L173.392 153.023L163.387 135.514L151.759 142.159L140.131 148.804L150.136 166.312L161.764 159.667ZM151.759 142.159L165.097 140.946L162.596 113.433L149.258 114.646L135.921 115.858L138.422 143.371L151.759 142.159ZM149.258 114.646L157.974 104.477L152.138 99.4746L143.422 109.643L134.706 119.812L140.542 124.814L149.258 114.646ZM143.422 109.643L130.836 105.066L124.166 123.409L136.752 127.985L149.338 132.562L156.008 114.22L143.422 109.643ZM136.752 127.985L123.62 125.359L120.285 142.034L133.417 144.66L146.55 147.287L149.885 130.612L136.752 127.985ZM133.417 144.66L120.768 140.26L114.098 159.436L126.747 163.836L139.397 168.236L146.066 149.06L133.417 144.66ZM126.747 163.836L133.05 152.019C134.372 152.725 135.548 153.834 136.342 155.187C137.074 156.437 137.217 157.437 137.245 157.731L123.912 159L110.58 160.27C111.112 165.851 113.838 172.129 120.445 175.653L126.747 163.836ZM123.912 159L137.245 157.731C137.302 158.33 137.255 158.656 137.261 158.6C137.266 158.561 137.3 158.32 137.424 157.839C137.678 156.85 138.185 155.335 139.085 153.204L126.747 147.995L114.409 142.786C112.289 147.807 110.008 154.262 110.58 160.27L123.912 159ZM126.747 147.995L135.885 138.204C134.711 137.109 134.628 136.5 134.593 136.074L121.245 137.157L107.896 138.239C108.528 146.039 112.113 152.656 117.609 157.786L126.747 147.995ZM121.245 137.157L134.596 136.102C134.376 133.318 134.58 130.254 135.326 126.855L122.245 123.983L109.164 121.112C107.909 126.829 107.446 132.546 107.893 138.211L121.245 137.157ZM122.245 123.983L135.273 127.085C136.303 122.761 137.547 118.301 139.009 113.704L126.247 109.643L113.485 105.582C111.835 110.768 110.41 115.868 109.217 120.881L122.245 123.983ZM126.247 109.643L139.009 113.704C140.817 108.021 142.031 102.37 142.578 96.7699L129.248 95.4695L115.919 94.1691C115.576 97.6847 114.789 101.483 113.485 105.582L126.247 109.643ZM129.248 95.4695L142.565 96.8963L145.066 73.5515L131.75 72.1248L118.433 70.698L115.932 94.0427L129.248 95.4695ZM131.75 72.1248L143.91 66.5125C144.061 66.8398 144.082 66.9945 144.059 66.8862C144.036 66.7785 143.985 66.4826 143.958 65.9533L130.582 66.6221L117.206 67.2909C117.372 70.592 117.98 74.2501 119.59 77.7371L131.75 72.1248ZM130.582 66.6221L143.958 65.9533C143.926 65.2989 144.01 64.8568 144.122 64.5208L131.416 60.2857L118.711 56.0505C117.489 59.7165 117.017 63.4987 117.206 67.2909L130.582 66.6221ZM131.416 60.2857L144.122 64.5208C144.05 64.7369 143.902 65.0676 143.639 65.431C143.374 65.7964 143.083 66.0702 142.838 66.2499L134.918 55.45L126.998 44.6501C123.047 47.5477 120.236 51.475 118.711 56.0505L131.416 60.2857ZM134.918 55.45L142.838 66.2499C141.622 67.1411 140.381 67.511 139.499 67.6186C138.714 67.7143 138.395 67.5857 138.743 67.6659L141.755 54.6162L144.766 41.5666C139.778 40.4154 132.985 40.2598 126.998 44.6501L134.918 55.45ZM141.755 54.6162H155.147C155.147 50.2511 155.409 47.262 155.757 45.3825L142.588 42.9439L129.42 40.5052C128.656 44.6287 128.362 49.4212 128.362 54.6162H141.755ZM142.588 42.9439L155.757 45.3825C156.19 43.0424 156.662 41.6272 156.994 40.8795L144.756 35.4402L132.518 30.001C131.071 33.2552 130.098 36.8424 129.42 40.5052L142.588 42.9439ZM144.756 35.4402L156.994 40.8795C157.506 39.7285 157.901 39.1861 158.046 39.0115L147.757 30.4378L137.469 21.864C135.391 24.3574 133.785 27.15 132.518 30.001L144.756 35.4402ZM147.757 30.4378L158.046 39.0116C159.416 37.3679 160.713 35.6609 161.937 33.8923L150.926 26.2691L139.914 18.6459C139.138 19.7676 138.323 20.8397 137.469 21.864L147.757 30.4378ZM145.089 63.7874L132.246 59.9926C130.792 64.913 129.502 69.3435 128.377 73.2812L141.254 76.9605L154.132 80.6397C155.23 76.7959 156.497 72.4443 157.933 67.5821L145.089 63.7874ZM141.254 76.9605L128.314 73.5097C127.427 76.8358 126.596 79.9381 125.821 82.8166L138.753 86.2984L151.685 89.7801C152.467 86.8781 153.303 83.755 154.195 80.4113L141.254 76.9605ZM138.753 86.2984L125.821 82.8166C125.417 84.3173 125.08 85.6239 124.835 86.6735C124.715 87.1904 124.59 87.7572 124.488 88.3118C124.44 88.5711 124.193 89.8382 124.193 91.3008H137.586H150.978C150.978 91.7353 150.956 92.0808 150.939 92.2896C150.921 92.5108 150.9 92.686 150.886 92.7984C150.858 93.0151 150.832 93.1506 150.83 93.1643C150.825 93.1908 150.846 93.0767 150.92 92.7599C151.064 92.142 151.311 91.1698 151.685 89.7801L138.753 86.2984ZM137.586 91.3008L150.021 96.2747C150.273 95.6449 150.475 95.186 150.627 94.8697C150.785 94.5379 150.839 94.4643 150.777 94.5637L139.42 87.4656L128.063 80.3675C126.892 82.2411 125.937 84.3623 125.151 86.3269L137.586 91.3008ZM139.42 87.4656L150.134 95.5012C149.635 96.1663 148.371 97.6488 146.075 98.7085C143.471 99.9102 140.545 100.096 137.909 99.3425L141.588 86.4651L145.267 73.5877C141.852 72.612 138.176 72.8532 134.85 74.3885C131.831 75.7817 129.872 77.8756 128.706 79.43L139.42 87.4656ZM141.588 86.4651L139.694 99.7232C136.823 99.313 135.022 97.996 134.393 97.4846C133.699 96.9205 133.429 96.5186 133.542 96.6684L144.256 88.6328L154.97 80.5973C154.082 79.4131 152.867 77.9829 151.284 76.6962C149.765 75.4622 147.131 73.7283 143.482 73.2071L141.588 86.4651ZM144.256 88.6328L133.542 96.6684C133.695 96.8725 134.34 97.8677 135.416 100.216L147.591 94.6358L159.766 89.0556C158.396 86.0679 156.818 83.0611 154.97 80.5972L144.256 88.6328ZM147.591 94.6358L160.801 92.434L158.3 77.4267L145.089 79.6284L131.879 81.8302L134.38 96.8375L147.591 94.6358ZM145.089 79.6284H158.482V63.7874H145.089H131.697V79.6284H145.089ZM228.783 52.115V38.7224H223.235L219.313 42.645L228.783 52.115ZM229.616 52.9488H216.224V66.3414H229.616V52.9488ZM233.452 54.9497L221.473 60.9391L221.782 61.5571L222.153 62.1399L233.452 54.9497ZM236.286 59.7854L247.994 53.2814L247.994 53.2814L236.286 59.7854ZM241.456 66.2886L231.985 75.7586L232.096 75.8687L232.208 75.9763L241.456 66.2886ZM252.961 72.9585L265.483 68.2088L263.407 62.7358L257.981 60.5421L252.961 72.9585ZM254.962 81.7962L241.581 82.3537L241.582 82.3658L241.582 82.3779L254.962 81.7962ZM254.295 89.2998L241.235 86.3317L241.171 86.6166L241.118 86.9041L254.295 89.2998ZM252.127 96.6367L264.437 101.912L264.481 101.81L264.523 101.708L252.127 96.6367ZM249.293 104.14L236.587 99.9053V99.9053L249.293 104.14ZM246.958 112.978L233.843 110.265L233.798 110.483L233.76 110.703L246.958 112.978ZM246.291 123.817L232.904 124.189L232.927 125.026L233.054 125.853L246.291 123.817ZM245.457 132.321L232.856 127.784H232.856L245.457 132.321ZM242.122 139.658L230.532 132.948L224.722 142.984L233.824 150.169L242.122 139.658ZM247.792 143.66L240.901 155.144L241.191 155.318L241.49 155.477L247.792 143.66ZM249.626 146.328L237.647 140.338L237.398 140.837L237.191 141.354L249.626 146.328ZM249.793 150.997L238.001 157.346L238.109 157.547L238.225 157.745L249.793 150.997ZM253.295 154.832L261.569 144.301L253.295 154.832ZM258.464 158.333L265.447 146.906L265.351 146.847L265.254 146.79L258.464 158.333ZM263.966 162.002L256.047 172.802L256.047 172.802L263.966 162.002ZM267.968 165.837L278.98 158.214L278.835 158.005L278.683 157.802L267.968 165.837ZM268.802 170.506L267.032 183.781L278.708 185.338L281.743 173.957L268.802 170.506ZM259.631 167.171L266.85 155.891L266.79 155.852L266.729 155.814L259.631 167.171ZM251.294 162.169L257.986 150.568L257.781 150.45L257.571 150.338L251.294 162.169ZM239.955 154.165L250.091 145.411V145.411L239.955 154.165ZM235.453 147.995L247.27 141.693L239.369 126.879L226.681 137.874L235.453 147.995ZM225.448 155.999L233.368 166.799L225.448 155.999ZM217.944 162.169L208.474 152.699L208.259 152.914L208.054 153.138L217.944 162.169ZM211.441 168.172L219.282 179.029L211.441 168.172ZM202.937 168.505L214.729 162.156L202.937 168.505ZM202.103 161.335L215.466 162.226L215.496 161.781V161.335H202.103ZM200.269 156.166L189.653 164.331L190.006 164.79L190.396 165.216L200.269 156.166ZM195.933 152.331L188.835 163.688L195.933 152.331ZM190.097 149.329L184.658 161.567L184.778 161.621L184.9 161.672L190.097 149.329ZM184.261 146.494L177.163 157.851L177.57 158.106L177.995 158.331L184.261 146.494ZM179.425 142.993L169.955 152.463L170.349 152.857L170.774 153.216L179.425 142.993ZM177.091 137.99L163.748 139.15L163.762 139.31L163.78 139.469L177.091 137.99ZM177.925 128.152L191.071 130.708L191.077 130.675L191.084 130.642L177.925 128.152ZM180.592 115.98L167.657 112.509L167.628 112.62L167.6 112.731L180.592 115.98ZM184.594 101.306L197.502 104.876L200.123 95.4018L191.87 90.0616L184.594 101.306ZM181.259 95.4695L167.909 96.5375L167.933 96.8348L167.97 97.1307L181.259 95.4695ZM181.76 85.9649L194.992 88.0324V88.0324L181.76 85.9649ZM184.094 74.2925L171.121 70.9661L171.091 71.0858L171.062 71.2059L184.094 74.2925ZM187.096 61.2862L174.175 57.7623L174.062 58.1755L173.976 58.595L187.096 61.2862ZM189.263 56.2837L179.254 47.3861L179.219 47.4252L179.184 47.4646L189.263 56.2837ZM194.766 56.4505L185.868 66.4603L186.197 66.7522L186.544 67.022L194.766 56.4505ZM197.768 58.9517L188.87 68.9615L197.768 58.9517ZM200.769 61.2862L208.198 50.1428L208.198 50.1428L200.769 61.2862ZM203.77 62.1199L205.249 75.4306L206.503 75.2913L207.709 74.9203L203.77 62.1199ZM207.105 60.9527L212.381 73.2625L212.381 73.2625L207.105 60.9527ZM209.94 59.6187L215.93 71.5974L216.143 71.4905L216.353 71.376L209.94 59.6187ZM223.78 53.7825L228.329 66.379L228.343 66.374L228.357 66.3688L223.78 53.7825ZM226.782 52.9488L225.121 39.6595L225.004 39.6741L224.888 39.6907L226.782 52.9488ZM214.442 70.9576L207.629 59.4275L207.51 59.4976L207.393 59.5702L214.442 70.9576ZM207.439 75.96L215.805 86.4179L215.835 86.3937L215.866 86.3694L207.439 75.96ZM196.267 85.4646L189.077 74.1658L183.953 77.4261L183.03 83.4282L196.267 85.4646ZM195.933 92.1345H182.541V92.392L182.551 92.6493L195.933 92.1345ZM196.267 101.306L182.882 101.767L182.882 101.775L182.883 101.784L196.267 101.306ZM196.434 110.31H183.041V110.578L183.052 110.845L196.434 110.31ZM196.267 116.313L183.09 113.917L183.015 114.331L182.966 114.748L196.267 116.313ZM197.601 127.152L185.111 131.986L185.207 132.233L185.312 132.477L197.601 127.152ZM202.937 137.157L191.622 144.322L192.417 145.577L193.467 146.627L202.937 137.157ZM212.108 137.99L204.679 126.847L204.499 126.967L204.324 127.092L212.108 137.99ZM217.11 133.822L207.64 124.351V124.352L217.11 133.822ZM218.778 132.154L228.248 141.624L238.37 131.502L227.597 122.075L218.778 132.154ZM214.943 128.986L205.83 138.8L206.191 139.136L206.576 139.444L214.943 128.986ZM210.107 124.484L200.637 133.954L200.8 134.117L200.969 134.274L210.107 124.484ZM205.938 119.815L194.795 127.244L195.085 127.678L195.407 128.089L205.938 119.815ZM204.604 115.479L191.975 111.022L191.619 112.031L191.428 113.084L204.604 115.479ZM205.271 110.977L192.095 113.373L192.116 113.488L192.139 113.604L205.271 110.977ZM204.437 107.976L192.128 113.251L192.128 113.251L204.437 107.976ZM205.438 105.474L213.919 95.109L208.883 90.9893L202.533 92.4006L205.438 105.474ZM209.106 108.476L218.004 98.4661L217.799 98.284L217.587 98.1105L209.106 108.476ZM212.275 111.144L203.908 121.602L204.149 121.794L204.397 121.975L212.275 111.144ZM215.443 113.812L226.243 105.892L225.637 105.066L224.913 104.342L215.443 113.812ZM218.778 119.481L206.674 125.214L206.86 125.606L207.07 125.985L218.778 119.481ZM222.946 123.817L216.644 135.634L217.48 136.079L218.37 136.403L222.946 123.817ZM227.949 126.318L219.13 136.397L230.622 146.452L239.092 133.747L227.949 126.318ZM230.45 121.816L242.429 127.805L242.429 127.805L230.45 121.816ZM233.452 115.479L221.473 109.49L221.351 109.734L221.239 109.983L233.452 115.479ZM236.286 109.143L224.048 103.704L223.919 103.993L223.804 104.289L236.286 109.143ZM237.954 104.641L251.028 107.546L252.487 100.979L248.09 95.8869L237.954 104.641ZM233.118 95.6362L220.301 99.5202L220.318 99.5757L220.335 99.631L233.118 95.6362ZM230.283 85.1311L217.22 88.081L217.23 88.1277L217.241 88.1743L230.283 85.1311ZM227.949 75.96L215.052 79.571L215.072 79.6406L215.092 79.7099L227.949 75.96ZM224.614 70.4573L215.144 79.9273L216.256 81.0392L217.595 81.8633L224.614 70.4573ZM223.28 69.2901L215.244 80.0042L215.244 80.0042L223.28 69.2901ZM228.783 52.115V65.5077C226.996 65.5077 223.196 65.052 219.938 61.7935C216.679 58.535 216.224 54.7353 216.224 52.9488H229.616H243.009C243.009 50.6064 242.414 46.3898 238.878 42.8534C235.342 39.317 231.125 38.7224 228.783 38.7224V52.115ZM229.616 52.9488V66.3414C229.05 66.3414 227.572 66.2484 225.798 65.3227C223.847 64.3053 222.354 62.7009 221.473 60.9391L233.452 54.9497L245.43 48.9604C241.853 41.8058 234.965 39.5561 229.616 39.5561V52.9488ZM233.452 54.9497L222.153 62.1399C222.731 63.0485 223.532 64.4049 224.579 66.2895L236.286 59.7854L247.994 53.2814C246.817 51.164 245.729 49.2966 244.75 47.7595L233.452 54.9497ZM236.286 59.7854L224.579 66.2895C226.497 69.7417 229.124 72.8968 231.985 75.7586L241.456 66.2886L250.926 56.8186C249.118 55.0115 248.299 53.8311 247.994 53.2814L236.286 59.7854ZM241.456 66.2886L232.208 75.9763C236.428 80.0041 242.054 82.9947 247.942 85.375L252.961 72.9585L257.981 60.5421C253.419 58.698 251.374 57.2421 250.703 56.6009L241.456 66.2886ZM252.961 72.9585L240.439 77.7083C241.293 79.9597 241.544 81.4682 241.581 82.3537L254.962 81.7962L268.343 81.2386C268.158 76.7882 267.075 72.4049 265.483 68.2088L252.961 72.9585ZM254.962 81.7962L241.582 82.3779C241.642 83.767 241.521 85.0735 241.235 86.3317L254.295 89.2998L267.355 92.2679C268.18 88.6349 268.504 84.9389 268.342 81.2144L254.962 81.7962ZM254.295 89.2998L241.118 86.9041C240.851 88.3777 240.402 89.9284 239.732 91.5658L252.127 96.6367L264.523 101.708C265.854 98.4538 266.85 95.1132 267.472 91.6956L254.295 89.2998ZM252.127 96.6367L239.818 91.3611C238.656 94.0707 237.582 96.9219 236.587 99.9053L249.293 104.14L261.998 108.376C262.782 106.023 263.597 103.872 264.437 101.912L252.127 96.6367ZM249.293 104.14L236.587 99.9053C235.507 103.148 234.599 106.61 233.843 110.265L246.958 112.978L260.073 115.691C260.651 112.898 261.3 110.469 261.998 108.376L249.293 104.14ZM246.958 112.978L233.76 110.703C233.025 114.969 232.773 119.489 232.904 124.189L246.291 123.817L259.679 123.445C259.587 120.141 259.78 117.435 260.156 115.254L246.958 112.978ZM246.291 123.817L233.054 125.853C233.155 126.511 233.108 127.087 232.856 127.784L245.457 132.321L258.058 136.857C259.808 131.997 260.316 126.903 259.528 121.78L246.291 123.817ZM245.457 132.321L232.856 127.784C232.073 129.961 231.281 131.655 230.532 132.948L242.122 139.658L253.713 146.368C255.41 143.437 256.841 140.239 258.058 136.857L245.457 132.321ZM242.122 139.658L233.824 150.169C236.228 152.067 238.599 153.762 240.901 155.144L247.792 143.66L254.682 132.176C253.65 131.556 252.242 130.583 250.421 129.146L242.122 139.658ZM247.792 143.66L241.49 155.477C241.42 155.44 241.08 155.256 240.604 154.884C240.152 154.532 239.299 153.794 238.465 152.581C237.592 151.312 236.66 149.391 236.427 146.911C236.189 144.365 236.77 142.094 237.647 140.338L249.626 146.328L261.605 152.317C264.227 147.074 263.315 141.447 260.537 137.406C258.418 134.323 255.597 132.644 254.094 131.843L247.792 143.66ZM249.626 146.328L237.191 141.354C235.208 146.311 235.15 152.051 238.001 157.346L249.793 150.997L261.585 144.647C262.116 145.633 262.502 146.881 262.552 148.267C262.6 149.617 262.315 150.668 262.061 151.302L249.626 146.328ZM249.793 150.997L238.225 157.745C240.055 160.882 242.495 163.378 245.02 165.363L253.295 154.832L261.569 144.301C261.289 144.081 261.165 143.95 261.142 143.926C261.122 143.903 261.22 144.006 261.361 144.248L249.793 150.997ZM253.295 154.832L245.02 165.363C247.095 166.993 249.321 168.493 251.673 169.877L258.464 158.333L265.254 146.79C263.827 145.95 262.607 145.116 261.569 144.301L253.295 154.832ZM258.464 158.333L251.48 169.761C253.202 170.813 254.719 171.828 256.047 172.802L263.966 162.002L271.886 151.202C269.879 149.73 267.728 148.299 265.447 146.906L258.464 158.333ZM263.966 162.002L256.047 172.802C256.896 173.424 257.207 173.81 257.254 173.873L267.968 165.837L278.683 157.802C276.729 155.196 274.372 153.025 271.886 151.202L263.966 162.002ZM267.968 165.837L256.957 173.46C256.487 172.781 255.978 171.758 255.743 170.443C255.507 169.12 255.626 167.94 255.862 167.055L268.802 170.506L281.743 173.957C283.221 168.414 282.169 162.82 278.98 158.214L267.968 165.837ZM268.802 170.506L270.572 157.231C269.138 157.04 267.948 156.593 266.85 155.891L259.631 167.171L252.412 178.451C256.873 181.306 261.796 183.083 267.032 183.781L268.802 170.506ZM259.631 167.171L266.729 155.814C263.92 154.058 261.005 152.31 257.986 150.568L251.294 162.169L244.601 173.769C247.363 175.363 250.006 176.949 252.533 178.528L259.631 167.171ZM251.294 162.169L257.571 150.338C252.505 147.65 250.533 145.923 250.091 145.411L239.955 154.165L229.819 162.919C233.601 167.298 239.188 170.906 245.016 173.999L251.294 162.169ZM239.955 154.165L250.091 145.411C248.24 143.268 247.476 142.08 247.27 141.693L235.453 147.995L223.636 154.298C225.207 157.245 227.446 160.17 229.819 162.919L239.955 154.165ZM235.453 147.995L226.681 137.874C223.603 140.543 220.551 142.982 217.528 145.199L225.448 155.999L233.368 166.799C237.014 164.125 240.633 161.228 244.224 158.116L235.453 147.995ZM225.448 155.999L217.528 145.199C213.987 147.796 210.852 150.32 208.474 152.699L217.944 162.169L227.414 171.639C228.371 170.682 230.239 169.093 233.368 166.799L225.448 155.999ZM217.944 162.169L208.054 153.138C206.111 155.266 204.627 156.573 203.6 157.314L211.441 168.172L219.282 179.029C222.257 176.88 225.108 174.185 227.834 171.199L217.944 162.169ZM211.441 168.172L203.6 157.314C203.121 157.66 202.973 157.707 203.136 157.633C203.283 157.567 204.026 157.247 205.245 157.153L206.272 170.506L207.299 183.859C212.377 183.469 216.523 181.021 219.282 179.029L211.441 168.172ZM206.272 170.506L205.245 157.153C206.95 157.022 209.141 157.343 211.245 158.605C213.237 159.8 214.275 161.314 214.729 162.156L202.937 168.505L191.145 174.855C192.376 177.142 194.36 179.711 197.464 181.573C200.678 183.502 204.148 184.102 207.299 183.859L206.272 170.506ZM202.937 168.505L214.729 162.156C215.099 162.844 215.278 163.394 215.359 163.689C215.441 163.987 215.454 164.136 215.448 164.082C215.442 164.033 215.425 163.857 215.422 163.529C215.419 163.205 215.429 162.774 215.466 162.226L202.103 161.335L188.74 160.444C188.492 164.171 188.458 169.864 191.145 174.855L202.937 168.505ZM202.103 161.335H215.496C215.496 156.469 214.001 151.327 210.141 147.116L200.269 156.166L190.396 165.216C189.781 164.545 189.311 163.75 189.023 162.937C188.746 162.157 188.71 161.572 188.71 161.335H202.103ZM200.269 156.166L210.884 148C208.665 145.115 205.963 142.806 203.031 140.974L195.933 152.331L188.835 163.688C189.461 164.079 189.649 164.326 189.653 164.331L200.269 156.166ZM195.933 152.331L203.031 140.974C200.594 139.45 198.005 138.128 195.294 136.986L190.097 149.329L184.9 161.672C186.413 162.309 187.716 162.988 188.835 163.688L195.933 152.331ZM190.097 149.329L195.536 137.091C193.809 136.323 192.14 135.512 190.527 134.658L184.261 146.494L177.995 158.331C180.162 159.478 182.383 160.557 184.658 161.567L190.097 149.329ZM184.261 146.494L191.359 135.137C190.067 134.33 188.982 133.536 188.076 132.769L179.425 142.993L170.774 153.216C172.758 154.895 174.898 156.436 177.163 157.851L184.261 146.494ZM179.425 142.993L188.895 133.523C189.304 133.931 189.69 134.461 189.977 135.078C190.26 135.684 190.367 136.198 190.402 136.511L177.091 137.99L163.78 139.469C164.314 144.275 166.321 148.828 169.955 152.463L179.425 142.993ZM177.091 137.99L190.433 136.83C190.363 136.023 190.409 134.115 191.071 130.708L177.925 128.152L164.778 125.596C163.884 130.193 163.374 134.844 163.748 139.15L177.091 137.99ZM177.925 128.152L191.084 130.642C191.814 126.779 192.648 122.975 193.585 119.228L180.592 115.98L167.6 112.731C166.535 116.988 165.591 121.299 164.765 125.663L177.925 128.152ZM180.592 115.98L193.528 119.45C194.74 114.93 196.065 110.072 197.502 104.876L184.594 101.306L171.686 97.7354C170.233 102.989 168.89 107.914 167.657 112.509L180.592 115.98ZM184.594 101.306L191.87 90.0616C192.714 90.6078 193.46 91.3897 193.971 92.2849C194.45 93.1218 194.539 93.7312 194.549 93.8083L181.259 95.4695L167.97 97.1307C168.689 102.882 171.455 108.756 177.319 112.55L184.594 101.306ZM181.259 95.4695L194.609 94.4015C194.491 92.9203 194.554 90.8361 194.992 88.0324L181.76 85.9649L168.528 83.8974C167.854 88.2082 167.583 92.4604 167.909 96.5375L181.259 95.4695ZM181.76 85.9649L194.992 88.0324C195.485 84.8781 196.19 81.3322 197.126 77.3791L184.094 74.2925L171.062 71.2059C169.997 75.7013 169.146 79.937 168.528 83.8974L181.76 85.9649ZM184.094 74.2925L197.067 77.6189C198.232 73.0753 199.282 68.5281 200.215 63.9773L187.096 61.2862L173.976 58.595C173.131 62.7152 172.179 66.8388 171.121 70.9661L184.094 74.2925ZM187.096 61.2862L200.016 64.81C200.124 64.4138 200.219 64.1091 200.294 63.8844C200.371 63.6566 200.418 63.545 200.426 63.5264C200.437 63.502 200.381 63.6356 200.24 63.876C200.105 64.1071 199.82 64.5574 199.342 65.1029L189.263 56.2837L179.184 47.4646C176.245 50.8236 174.9 55.1043 174.175 57.7623L187.096 61.2862ZM189.263 56.2837L199.273 65.1813C198.758 65.7611 195.626 68.9084 190.27 68.239L191.931 54.9497L193.592 41.6605C186.458 40.7687 181.548 44.8053 179.254 47.3861L189.263 56.2837ZM191.931 54.9497L190.27 68.239C187.445 67.8859 185.951 66.5332 185.868 66.4603L194.766 56.4505L203.664 46.4407C201.581 44.5891 198.196 42.2359 193.592 41.6605L191.931 54.9497ZM194.766 56.4505L186.544 67.022C187.301 67.6107 188.076 68.256 188.87 68.9615L197.768 58.9517L206.665 48.9419C205.458 47.8688 204.232 46.8466 202.988 45.8789L194.766 56.4505ZM197.768 58.9517L188.87 68.9615C190.282 70.2167 191.77 71.3831 193.34 72.4295L200.769 61.2862L208.198 50.1428C207.767 49.8552 207.254 49.4653 206.665 48.9419L197.768 58.9517ZM200.769 61.2862L193.34 72.4295C196.43 74.4892 200.535 75.9545 205.249 75.4306L203.77 62.1199L202.291 48.8092C205.005 48.5076 207.109 49.4171 208.198 50.1428L200.769 61.2862ZM203.77 62.1199L207.709 74.9203C209.315 74.4261 210.954 73.874 212.381 73.2625L207.105 60.9527L201.83 48.6429C201.83 48.6429 201.83 48.6429 201.83 48.6429C201.83 48.6429 201.83 48.6429 201.83 48.6429C201.83 48.643 201.829 48.643 201.829 48.6431C201.829 48.6433 201.828 48.6436 201.827 48.644C201.825 48.6447 201.823 48.6458 201.82 48.6472C201.813 48.65 201.803 48.6541 201.79 48.6594C201.763 48.6701 201.726 48.6849 201.676 48.7038C201.576 48.742 201.44 48.792 201.264 48.8538C200.906 48.9789 200.435 49.134 199.832 49.3195L203.77 62.1199ZM207.105 60.9527L212.381 73.2625C213.483 72.7901 214.681 72.2218 215.93 71.5974L209.94 59.6187L203.951 47.6399C202.976 48.1272 202.284 48.4482 201.83 48.6429L207.105 60.9527ZM209.94 59.6187L216.353 71.376C217.132 70.9511 218.381 70.3376 220.215 69.5226L214.776 57.2842L209.337 45.0459C207.168 46.0095 205.194 46.9522 203.527 47.8613L209.94 59.6187ZM214.776 57.2842L220.215 69.5226C221.766 68.8333 224.404 67.7964 228.329 66.379L223.78 53.7825L219.231 41.186C215.153 42.6589 211.788 43.9565 209.337 45.0459L214.776 57.2842ZM223.78 53.7825L228.357 66.3688C228.719 66.237 228.938 66.1709 229.032 66.1446C229.076 66.1326 229.069 66.1355 229.018 66.1467C228.969 66.1575 228.852 66.1817 228.676 66.2068L226.782 52.9488L224.888 39.6907C222.795 39.9896 220.809 40.6121 219.203 41.1962L223.78 53.7825ZM226.782 52.9488L228.443 66.238C231.064 65.9104 234.971 64.867 238.253 61.5851L228.783 52.115L219.313 42.645C221.705 40.2523 224.278 39.7648 225.121 39.6595L226.782 52.9488ZM221.279 68.7898V55.3972C216.081 55.3972 211.451 57.1692 207.629 59.4275L214.442 70.9576L221.256 82.4876C221.505 82.3401 221.697 82.2431 221.83 82.1817C221.964 82.1204 222.031 82.0989 222.034 82.098C222.034 82.098 221.764 82.1825 221.279 82.1825V68.7898ZM214.442 70.9576L207.393 59.5702C204.537 61.3382 201.745 63.3388 199.012 65.5506L207.439 75.96L215.866 86.3694C217.802 84.8016 219.679 83.4672 221.492 82.3449L214.442 70.9576ZM207.439 75.96L199.073 65.5021C196.573 67.5019 194.183 69.5761 191.907 71.726L201.102 81.4627L210.298 91.1993C212.024 89.5696 213.858 87.9754 215.805 86.4179L207.439 75.96ZM201.102 81.4627L191.907 71.726C191.057 72.5286 190.378 73.1297 189.854 73.5629C189.307 74.016 189.063 74.1743 189.077 74.1658L196.267 85.4646L203.457 96.7635C205.774 95.2889 208.125 93.2519 210.298 91.1993L201.102 81.4627ZM196.267 85.4646L183.03 83.4282C182.644 85.9334 182.541 89.0048 182.541 92.1345H195.933H209.326C209.326 89.2613 209.444 87.8862 209.504 87.5011L196.267 85.4646ZM195.933 92.1345L182.551 92.6493C182.661 95.52 182.771 98.5592 182.882 101.767L196.267 101.306L209.651 100.844C209.54 97.6046 209.428 94.5297 209.316 91.6198L195.933 92.1345ZM196.267 101.306L182.883 101.784C182.989 104.749 183.041 107.591 183.041 110.31H196.434H209.826C209.826 107.249 209.767 104.087 209.651 100.828L196.267 101.306ZM196.434 110.31L183.052 110.845C183.099 112.039 183.105 112.916 183.088 113.523C183.069 114.201 183.029 114.251 183.09 113.917L196.267 116.313L209.443 118.709C209.951 115.917 209.93 112.634 209.815 109.775L196.434 110.31ZM196.267 116.313L182.966 114.748C182.274 120.628 182.965 126.443 185.111 131.986L197.601 127.152L210.09 122.317C209.568 120.968 209.37 119.557 209.568 117.878L196.267 116.313ZM197.601 127.152L185.312 132.477C187.056 136.501 189.17 140.45 191.622 144.322L202.937 137.157L214.251 129.991C212.479 127.193 211.036 124.472 209.889 121.827L197.601 127.152ZM202.937 137.157L193.467 146.627C196.594 149.754 201.467 153.05 207.939 153.05V139.658V126.265C211.076 126.265 212.614 127.894 212.407 127.686L202.937 137.157ZM207.939 139.658V153.05C213.127 153.05 217.255 150.772 219.892 148.888L212.108 137.99L204.324 127.092C204.189 127.188 204.394 127.018 204.925 126.806C205.468 126.589 206.512 126.265 207.939 126.265V139.658ZM212.108 137.99L219.537 149.134C222.053 147.456 224.395 145.477 226.58 143.292L217.11 133.822L207.64 124.352C206.49 125.501 205.497 126.301 204.679 126.847L212.108 137.99ZM217.11 133.822L226.58 143.292L228.248 141.624L218.778 132.154L209.308 122.684L207.64 124.351L217.11 133.822ZM218.778 132.154L227.597 122.075C226.486 121.103 225.029 119.904 223.309 118.528L214.943 128.986L206.576 139.444C208.191 140.736 209.29 141.648 209.959 142.233L218.778 132.154ZM214.943 128.986L224.056 119.172C222.508 117.735 220.905 116.242 219.245 114.693L210.107 124.484L200.969 134.274C202.644 135.838 204.264 137.346 205.83 138.8L214.943 128.986ZM210.107 124.484L219.577 115.014C218.357 113.793 217.328 112.634 216.469 111.54L205.938 119.815L195.407 128.089C196.994 130.108 198.745 132.061 200.637 133.954L210.107 124.484ZM205.938 119.815L217.082 112.386C217.025 112.302 217.312 112.7 217.571 113.542C217.845 114.431 218.128 115.966 217.781 117.875L204.604 115.479L191.428 113.084C190.298 119.299 192.883 124.376 194.795 127.244L205.938 119.815ZM204.604 115.479L217.233 119.937C218.169 117.286 219.337 113.016 218.404 108.351L205.271 110.977L192.139 113.604C191.864 112.233 191.98 111.265 192.023 110.974C192.07 110.654 192.108 110.646 191.975 111.022L204.604 115.479ZM205.271 110.977L218.448 108.581C218.121 106.784 217.614 104.723 216.747 102.7L204.437 107.976L192.128 113.251C192.068 113.112 192.031 113.01 192.012 112.955C191.993 112.898 191.987 112.876 191.992 112.894C191.997 112.911 192.009 112.959 192.028 113.041C192.046 113.123 192.069 113.233 192.095 113.373L205.271 110.977ZM204.437 107.976L216.747 102.7C216.698 102.586 216.779 102.755 216.89 103.127C216.949 103.322 217.045 103.669 217.132 104.132C217.214 104.568 217.33 105.33 217.33 106.308H203.937H190.545C190.545 109.724 191.857 112.619 192.128 113.251L204.437 107.976ZM203.937 106.308H217.33C217.33 113.765 211.678 117.078 210.816 117.557C210.003 118.009 209.34 118.249 209.017 118.357C208.662 118.475 208.419 118.531 208.343 118.548L205.438 105.474L202.533 92.4006C201.6 92.6079 199.743 93.0676 197.808 94.1423C196.446 94.899 190.545 98.5181 190.545 106.308H203.937ZM205.438 105.474L196.957 115.84C198.18 116.84 199.403 117.841 200.626 118.841L209.106 108.476L217.587 98.1105C216.364 97.11 215.141 96.1095 213.919 95.109L205.438 105.474ZM209.106 108.476L200.209 118.486C201.393 119.538 202.627 120.577 203.908 121.602L212.275 111.144L220.641 100.686C219.699 99.9323 218.821 99.1921 218.004 98.4661L209.106 108.476ZM212.275 111.144L204.397 121.975C205.164 122.532 205.665 122.974 205.973 123.282L215.443 113.812L224.913 104.342C223.442 102.871 221.831 101.534 220.152 100.313L212.275 111.144ZM215.443 113.812L204.643 121.732C205.303 122.631 205.992 123.773 206.674 125.214L218.778 119.481L230.881 113.748C229.563 110.965 228.029 108.327 226.243 105.892L215.443 113.812ZM218.778 119.481L207.07 125.985C209.168 129.76 212.26 133.296 216.644 135.634L222.946 123.817L229.249 112C229.732 112.257 230.085 112.552 230.308 112.783C230.518 113.002 230.557 113.107 230.485 112.977L218.778 119.481ZM222.946 123.817L218.37 136.403C218.812 136.564 219.173 136.705 219.46 136.826C219.75 136.947 219.938 137.036 220.042 137.088C220.151 137.142 220.122 137.134 219.994 137.053C219.877 136.979 219.554 136.768 219.13 136.397L227.949 126.318L236.768 116.239C233.853 113.688 230.105 112.169 227.523 111.23L222.946 123.817ZM227.949 126.318L239.092 133.747C240.225 132.047 241.352 129.958 242.429 127.805L230.45 121.816L218.471 115.826C217.547 117.675 217.007 118.587 216.806 118.889L227.949 126.318ZM230.45 121.816L242.429 127.805C243.518 125.627 244.596 123.35 245.665 120.975L233.452 115.479L221.239 109.983C220.306 112.055 219.384 114.002 218.471 115.826L230.45 121.816ZM233.452 115.479L245.43 121.469C246.699 118.931 247.819 116.438 248.768 113.997L236.286 109.143L223.804 104.289C223.197 105.849 222.427 107.581 221.473 109.49L233.452 115.479ZM236.286 109.143L248.525 114.582C249.464 112.469 250.496 109.937 251.028 107.546L237.954 104.641L224.88 101.735C224.923 101.541 224.952 101.456 224.936 101.506C224.923 101.55 224.885 101.666 224.811 101.865C224.66 102.273 224.416 102.875 224.048 103.704L236.286 109.143ZM237.954 104.641L248.09 95.8869C247.346 95.0264 246.549 93.7145 245.901 91.6415L233.118 95.6362L220.335 99.631C221.911 104.673 224.337 109.364 227.818 113.394L237.954 104.641ZM233.118 95.6362L245.935 91.7523C244.898 88.3294 244.031 85.1093 243.326 82.0879L230.283 85.1311L217.241 88.1743C218.092 91.8229 219.115 95.6062 220.301 99.5202L233.118 95.6362ZM230.283 85.1311L243.347 82.1813C242.524 78.5344 241.678 75.202 240.806 72.21L227.949 75.96L215.092 79.7099C215.776 82.054 216.487 84.8356 217.22 88.081L230.283 85.1311ZM227.949 75.96L240.846 72.3489C239.749 68.4317 237.385 62.5909 231.633 59.0513L224.614 70.4573L217.595 81.8633C216.091 80.9376 215.341 79.8752 215.078 79.4414C214.83 79.0314 214.886 78.9765 215.052 79.571L227.949 75.96ZM224.614 70.4573L234.084 60.9873C233.248 60.1516 232.328 59.3353 231.316 58.5759L223.28 69.2901L215.244 80.0042C215.121 79.9119 215.09 79.8736 215.144 79.9273L224.614 70.4573ZM223.28 69.2901L231.316 58.576C227.531 55.7374 223.456 55.3972 221.279 55.3972V68.7898V82.1825C220.93 82.1825 220.184 82.1542 219.198 81.9077C218.198 81.6576 216.745 81.1298 215.244 80.0042L223.28 69.2901Z" fill="#D6FF00" mask="url(#path-1-outside-1_1953_1134)"/>
</svg>
