<svg width="154" height="18" viewBox="0 0 154 18" fill="none" xmlns="http://www.w3.org/2000/svg">
<path d="M12.4461 0.0079999V4.232H5.77409V6.584H10.5741V10.592H5.77409V17H0.446094V0.0079999H12.4461ZM19.5788 4.256V6.344H24.8588V10.352H19.5788V12.752H25.5788V17H14.2508V0.0079999H25.5788V4.256H19.5788ZM38.4827 14.432H32.8187L31.9787 17H26.3867L32.6027 0.0079999H38.7467L44.9387 17H39.3227L38.4827 14.432ZM37.1867 10.424L35.6507 5.696L34.1147 10.424H37.1867ZM59.4932 0.0079999V4.232H54.9812V17H49.6532V4.232H45.1892V0.0079999H59.4932ZM66.1463 0.0079999V9.584C66.1463 10.368 66.3143 10.992 66.6503 11.456C67.0023 11.904 67.5623 12.128 68.3303 12.128C69.0983 12.128 69.6663 11.904 70.0343 11.456C70.4023 10.992 70.5863 10.368 70.5863 9.584V0.0079999H75.8903V9.584C75.8903 11.2 75.5543 12.584 74.8823 13.736C74.2103 14.872 73.2903 15.728 72.1223 16.304C70.9543 16.88 69.6503 17.168 68.2103 17.168C66.7703 17.168 65.4903 16.88 64.3703 16.304C63.2663 15.728 62.4023 14.872 61.7783 13.736C61.1543 12.6 60.8423 11.216 60.8423 9.584V0.0079999H66.1463ZM86.7323 17L83.5403 10.904H83.5163V17H78.1883V0.0079999H86.1083C87.4843 0.0079999 88.6603 0.256 89.6363 0.751999C90.6123 1.232 91.3403 1.896 91.8203 2.744C92.3163 3.576 92.5643 4.52 92.5643 5.576C92.5643 6.712 92.2443 7.72 91.6043 8.6C90.9803 9.48 90.0763 10.112 88.8923 10.496L92.5883 17H86.7323ZM83.5163 7.352H85.6283C86.1403 7.352 86.5243 7.24 86.7803 7.016C87.0363 6.776 87.1643 6.408 87.1643 5.912C87.1643 5.464 87.0283 5.112 86.7563 4.856C86.5003 4.6 86.1243 4.472 85.6283 4.472H83.5163V7.352ZM99.5944 4.256V6.344H104.874V10.352H99.5944V12.752H105.594V17H94.2664V0.0079999H105.594V4.256H99.5944ZM114.682 0.0079999C116.458 0.0079999 118.01 0.368 119.338 1.088C120.682 1.808 121.714 2.808 122.434 4.088C123.154 5.368 123.514 6.824 123.514 8.456C123.514 10.072 123.154 11.528 122.434 12.824C121.714 14.12 120.682 15.144 119.338 15.896C118.01 16.632 116.458 17 114.682 17H107.602V0.0079999H114.682ZM114.202 12.248C115.402 12.248 116.354 11.92 117.058 11.264C117.762 10.608 118.114 9.672 118.114 8.456C118.114 7.24 117.762 6.304 117.058 5.648C116.354 4.992 115.402 4.664 114.202 4.664H112.93V12.248H114.202ZM134.844 0.0079999V17H129.516V0.0079999H134.844ZM153.547 17H148.219L142.579 8.456V17H137.251V0.0079999H142.579L148.219 8.696V0.0079999H153.547V17Z" fill="#003E57"/>
</svg>
